<svg width="24" height="24" viewBox="0 0 24 24" fill="none" xmlns="http://www.w3.org/2000/svg">
<path d="M15.1248 21.1L6.6998 12.7C6.5998 12.6 6.52914 12.4917 6.4878 12.375C6.4458 12.2584 6.4248 12.1334 6.4248 12C6.4248 11.8667 6.4458 11.7417 6.4878 11.625C6.52914 11.5084 6.5998 11.4 6.6998 11.3L15.1248 2.87502C15.3581 2.64169 15.6498 2.52502 15.9998 2.52502C16.3498 2.52502 16.6498 2.65002 16.8998 2.90002C17.1498 3.15002 17.2748 3.44169 17.2748 3.77502C17.2748 4.10836 17.1498 4.40002 16.8998 4.65002L9.5498 12L16.8998 19.35C17.1331 19.5834 17.2498 19.8707 17.2498 20.212C17.2498 20.554 17.1248 20.85 16.8748 21.1C16.6248 21.35 16.3331 21.475 15.9998 21.475C15.6665 21.475 15.3748 21.35 15.1248 21.1Z" fill="#393939"/>
</svg>
