<svg width="24" height="24" viewBox="0 0 24 24" fill="none" xmlns="http://www.w3.org/2000/svg">
<path d="M15.3002 17.2998C15.4835 17.1165 15.5752 16.8831 15.5752 16.5998C15.5752 16.3165 15.4835 16.0831 15.3002 15.8998L11.4002 11.9998L15.3002 8.0998C15.4835 7.91647 15.5752 7.68314 15.5752 7.3998C15.5752 7.11647 15.4835 6.88314 15.3002 6.6998C15.1169 6.51647 14.8835 6.4248 14.6002 6.4248C14.3169 6.4248 14.0835 6.51647 13.9002 6.6998L9.3002 11.2998C9.2002 11.3998 9.1292 11.5081 9.0872 11.6248C9.04586 11.7415 9.0252 11.8665 9.0252 11.9998C9.0252 12.1331 9.04586 12.2581 9.0872 12.3748C9.1292 12.4915 9.2002 12.5998 9.3002 12.6998L13.9002 17.2998C14.0835 17.4831 14.3169 17.5748 14.6002 17.5748C14.8835 17.5748 15.1169 17.4831 15.3002 17.2998Z" fill="#393939"/>
</svg>
