<svg width="24" height="24" viewBox="0 0 24 24" fill="none" xmlns="http://www.w3.org/2000/svg">
<path fill-rule="evenodd" clip-rule="evenodd" d="M7.54744 3H21.189C22.7486 3 24 4.23117 24 5.73684V18.2632C24 19.7688 22.7486 21 21.189 21H7.54744C6.59953 21 5.79204 20.536 5.26371 19.7706L0 11.9955L5.26858 4.21329C5.79051 3.4573 6.59922 3 7.54744 3ZM22.0168 5.73663C22.0168 5.26494 21.6403 4.89453 21.1901 4.89453H7.54851C7.29985 4.89453 7.09636 5.0096 6.93113 5.24885L2.36382 11.9953L2.01562 11.481V12.5096L2.36382 11.9953L6.92626 18.7346C7.10025 18.9866 7.30625 19.105 7.54851 19.105H21.1901C21.6403 19.105 22.0168 18.7346 22.0168 18.2629V5.73663Z" fill="#393939"/>
<path fill-rule="evenodd" clip-rule="evenodd" d="M18.5465 15.0128L17.2344 16.2639L13.91 13.0941L10.5856 16.2639L9.27344 15.0128L12.5978 11.8429L9.27344 8.67303L10.5856 7.42188L13.91 10.5918L17.2344 7.42188L18.5465 8.67303L15.2221 11.8429L18.5465 15.0128Z" fill="#393939"/>
</svg>
