<svg width="40" height="40" viewBox="0 0 40 40" fill="none" xmlns="http://www.w3.org/2000/svg">
<path d="M13.3333 30.0003C13.3333 29.7793 13.2455 29.5673 13.0892 29.4111C12.9329 29.2548 12.7209 29.167 12.4999 29.167H9.16659C9.05715 29.167 8.94879 29.1885 8.84768 29.2304C8.74658 29.2723 8.65471 29.3337 8.57733 29.4111C8.49995 29.4885 8.43856 29.5803 8.39669 29.6814C8.35481 29.7825 8.33325 29.8909 8.33325 30.0003V35.0003C8.33325 35.1098 8.35481 35.2181 8.39669 35.3192C8.43856 35.4203 8.49995 35.5122 8.57733 35.5896C8.65471 35.667 8.74658 35.7283 8.84768 35.7702C8.94879 35.8121 9.05715 35.8337 9.16659 35.8337H12.4999C12.7209 35.8337 12.9329 35.7459 13.0892 35.5896C13.2455 35.4333 13.3333 35.2213 13.3333 35.0003V30.0003ZM31.6666 30.0003C31.6666 29.8909 31.645 29.7825 31.6032 29.6814C31.5613 29.5803 31.4999 29.4885 31.4225 29.4111C31.3451 29.3337 31.2533 29.2723 31.1522 29.2304C31.0511 29.1885 30.9427 29.167 30.8333 29.167H27.4999C27.2789 29.167 27.0669 29.2548 26.9107 29.4111C26.7544 29.5673 26.6666 29.7793 26.6666 30.0003V35.0003C26.6666 35.2213 26.7544 35.4333 26.9107 35.5896C27.0669 35.7459 27.2789 35.8337 27.4999 35.8337H30.8333C30.9427 35.8337 31.0511 35.8121 31.1522 35.7702C31.2533 35.7283 31.3451 35.667 31.4225 35.5896C31.4999 35.5122 31.5613 35.4203 31.6032 35.3192C31.645 35.2181 31.6666 35.1098 31.6666 35.0003V30.0003Z" fill="#455A64"/>
<path d="M31.2501 3.33301H8.75008C8.47649 3.33301 8.20559 3.38689 7.95282 3.49159C7.70006 3.59629 7.4704 3.74975 7.27694 3.9432C7.08349 4.13666 6.93003 4.36632 6.82533 4.61908C6.72063 4.87185 6.66675 5.14275 6.66675 5.41634V30.833C6.66675 30.833 6.66675 32.4997 8.33341 32.4997H31.6667C33.3334 32.4997 33.3334 30.833 33.3334 30.833V5.41634C33.3334 5.14275 33.2795 4.87185 33.1748 4.61908C33.0701 4.36632 32.9167 4.13666 32.7232 3.9432C32.5298 3.74975 32.3001 3.59629 32.0473 3.49159C31.7946 3.38689 31.5237 3.33301 31.2501 3.33301Z" fill="#FEBE98"/>
<path d="M8.33333 18.7492C8.33333 19.0807 8.20164 19.3986 7.96722 19.6331C7.7328 19.8675 7.41485 19.9992 7.08333 19.9992H6.25C5.91848 19.9992 5.60054 19.8675 5.36612 19.6331C5.1317 19.3986 5 19.0807 5 18.7492V16.25C5 15.9185 5.1317 15.6005 5.36612 15.3661C5.60054 15.1317 5.91848 15 6.25 15H7.08333C7.41485 15 7.7328 15.1317 7.96722 15.3661C8.20164 15.6005 8.33333 15.9185 8.33333 16.25V18.7492ZM35 18.7492C35 19.0807 34.8683 19.3986 34.6339 19.6331C34.3995 19.8675 34.0815 19.9992 33.75 19.9992H32.9167C32.5851 19.9992 32.2672 19.8675 32.0328 19.6331C31.7984 19.3986 31.6667 19.0807 31.6667 18.7492V16.25C31.6667 15.9185 31.7984 15.6005 32.0328 15.3661C32.2672 15.1317 32.5851 15 32.9167 15H33.75C34.0815 15 34.3995 15.1317 34.6339 15.3661C34.8683 15.6005 35 15.9185 35 16.25V18.7492Z" fill="#FEBE98"/>
<path d="M9.16675 27.0833C9.16675 27.3569 9.22063 27.6278 9.32533 27.8806C9.43003 28.1334 9.58349 28.363 9.77694 28.5565C9.9704 28.7499 10.2001 28.9034 10.4528 29.0081C10.7056 29.1128 10.9765 29.1667 11.2501 29.1667C11.5237 29.1667 11.7946 29.1128 12.0473 29.0081C12.3001 28.9034 12.5298 28.7499 12.7232 28.5565C12.9167 28.363 13.0701 28.1334 13.1748 27.8806C13.2795 27.6278 13.3334 27.3569 13.3334 27.0833C13.3334 26.5308 13.1139 26.0009 12.7232 25.6102C12.3325 25.2195 11.8026 25 11.2501 25C10.6975 25 10.1676 25.2195 9.77694 25.6102C9.38624 26.0009 9.16675 26.5308 9.16675 27.0833Z" fill="#FCF8F5"/>
<path d="M26.6667 27.0833C26.6667 27.6359 26.8862 28.1658 27.2769 28.5565C27.6676 28.9472 28.1975 29.1667 28.7501 29.1667C29.3026 29.1667 29.8325 28.9472 30.2232 28.5565C30.6139 28.1658 30.8334 27.6359 30.8334 27.0833C30.8334 26.5308 30.6139 26.0009 30.2232 25.6102C29.8325 25.2195 29.3026 25 28.7501 25C28.1975 25 27.6676 25.2195 27.2769 25.6102C26.8862 26.0009 26.6667 26.5308 26.6667 27.0833Z" fill="#FCF8F5"/>
<path d="M30.4166 5H9.58325C9.25173 5 8.93379 5.1317 8.69937 5.36612C8.46495 5.60054 8.33325 5.91848 8.33325 6.25V19.5833C8.33325 19.8569 8.38714 20.1278 8.49184 20.3806C8.59653 20.6334 8.74999 20.863 8.94345 21.0565C9.1369 21.2499 9.36657 21.4034 9.61933 21.5081C9.87209 21.6128 10.143 21.6667 10.4166 21.6667H29.5833C29.8568 21.6667 30.1277 21.6128 30.3805 21.5081C30.6333 21.4034 30.8629 21.2499 31.0564 21.0565C31.2498 20.863 31.4033 20.6334 31.508 20.3806C31.6127 20.1278 31.6666 19.8569 31.6666 19.5833V6.25C31.6666 5.91848 31.5349 5.60054 31.3005 5.36612C31.066 5.1317 30.7481 5 30.4166 5Z" fill="#9FA8DA"/>
<path d="M31.6666 10H8.33325V6.25C8.33325 5.91848 8.46495 5.60054 8.69937 5.36612C8.93379 5.1317 9.25173 5 9.58325 5H30.4166C30.7481 5 31.066 5.1317 31.3005 5.36612C31.5349 5.60054 31.6666 5.91848 31.6666 6.25V10Z" fill="#263238"/>
<path d="M10 6.66699H19.1667V8.33366H10V6.66699ZM20.8333 6.66699H24.1667V8.33366H20.8333V6.66699Z" fill="white"/>
<path d="M17.4999 21.667H10.8333V15.417C10.8333 15.0855 10.9649 14.7675 11.1994 14.5331C11.4338 14.2987 11.7517 14.167 12.0833 14.167H16.2499C16.5814 14.167 16.8994 14.2987 17.1338 14.5331C17.3682 14.7675 17.4999 15.0855 17.4999 15.417V21.667ZM29.1666 21.667H22.4999V15.417C22.4999 15.0855 22.6316 14.7675 22.866 14.5331C23.1005 14.2987 23.4184 14.167 23.7499 14.167H27.9166C28.2481 14.167 28.566 14.2987 28.8005 14.5331C29.0349 14.7675 29.1666 15.0855 29.1666 15.417V21.667Z" fill="#7986CB"/>
<path d="M23.6917 21.6667C23.4701 21.4192 23.3334 21.1358 23.3334 20.8333C23.3334 19.93 24.4784 19.1667 25.8334 19.1667C27.1884 19.1667 28.3334 19.93 28.3334 20.8333C28.3334 21.1358 28.1967 21.4192 27.9751 21.6667H29.8517C29.9392 21.3992 30.0001 21.1233 30.0001 20.8333C30.0001 18.995 28.1309 17.5 25.8334 17.5C23.5359 17.5 21.6667 18.995 21.6667 20.8333C21.6667 21.1233 21.7276 21.3992 21.8151 21.6667H23.6917Z" fill="#3949AB"/>
</svg>
