<svg width="40" height="40" viewBox="0 0 40 40" fill="none" xmlns="http://www.w3.org/2000/svg">
<g clip-path="url(#clip0_206_5804)">
<path d="M19.1978 13.9648C19.0056 13.7887 18.7471 13.7008 18.489 13.722L17.6752 13.7885L17.5721 9.05225L18.0924 9.00973C18.4082 8.98388 18.6895 8.80024 18.84 8.52145C18.9906 8.24266 18.9901 7.90675 18.8385 7.62852L16.5609 3.44575C16.3836 3.12042 16.0317 2.92984 15.6622 2.96019L2.42826 4.0421C2.059 4.07225 1.74229 4.31733 1.62026 4.6671L0.0522274 9.16425C-0.0520961 9.46336 0.00193863 9.79496 0.195789 10.0456C0.373907 10.2758 0.648014 10.409 0.936355 10.409C0.961733 10.409 0.987206 10.408 1.01268 10.4059L1.53317 10.3634L2.2006 15.0535L1.3868 15.12C1.12702 15.1412 0.887752 15.2698 0.726678 15.4748C0.565604 15.6797 0.497335 15.9426 0.538071 16.2L2.62585 29.3679C2.69843 29.826 3.09372 30.1578 3.54997 30.1578C3.57544 30.1578 3.60129 30.1568 3.62704 30.1546L4.34054 30.0963L5.21437 36.238C5.28048 36.7028 5.67886 37.0426 6.14064 37.0426C6.1662 37.0426 6.19195 37.0416 6.2178 37.0394L17.2819 36.135C17.7757 36.0946 18.1527 35.6766 18.142 35.1812L18.0067 28.9791L18.7201 28.9207C19.2083 28.8808 19.5832 28.4716 19.5804 27.9818L19.5017 14.6497C19.5002 14.3891 19.3901 14.1409 19.1978 13.9648ZM3.18811 5.85914L15.2074 4.87659L16.5054 7.2602L2.29453 8.4219L3.18811 5.85914ZM3.40341 10.2109L15.702 9.20545L15.8051 13.9413L4.07074 14.9005L3.40341 10.2109ZM2.54625 16.9044L17.6348 15.671L17.7024 27.1248L4.33979 28.2171L2.54625 16.9044ZM16.2503 34.3401L6.94451 35.1008L6.21078 29.9434L16.1368 29.132L16.2503 34.3401Z" fill="#393939"/>
<path d="M3.18811 5.85914L15.2074 4.87659L16.5054 7.2602L2.29453 8.4219L3.18811 5.85914Z" fill="#D2E4CC"/>
<path d="M2.54625 16.9044L17.6348 15.671L17.7024 27.1248L4.33979 28.2171L2.54625 16.9044Z" fill="#D2E4CC"/>
<path d="M6.45179 23.3472L10.2681 26.5867C10.4443 26.7361 10.6596 26.8093 10.8737 26.8092C11.1391 26.8092 11.4028 26.6969 11.5882 26.4787L14.8276 22.6625C16.0549 21.2165 15.8771 19.0418 14.4313 17.8146C13.7309 17.22 12.8406 16.9339 11.9253 17.0088C11.2936 17.0605 10.7018 17.2797 10.2003 17.6407C8.81902 16.9591 7.09646 17.2732 6.05557 18.4994C4.82832 19.9451 5.00597 22.1199 6.45179 23.3472ZM7.48341 19.7114C7.79283 19.347 8.23437 19.1594 8.67873 19.1594C9.03712 19.1594 9.39738 19.2814 9.69134 19.531C10.0855 19.8657 10.6765 19.8174 11.0113 19.423C11.282 19.104 11.6608 18.9096 12.0779 18.8755C12.4952 18.8414 12.9002 18.9718 13.2192 19.2425C13.8777 19.8014 13.9587 20.7918 13.3997 21.4504L10.7663 24.5526L7.66397 21.9193C7.00544 21.3604 6.92452 20.3699 7.48341 19.7114Z" fill="#393939"/>
<path d="M7.48341 19.7114C7.79283 19.347 8.23437 19.1594 8.67873 19.1594C9.03712 19.1594 9.39738 19.2814 9.69134 19.531C10.0855 19.8657 10.6765 19.8174 11.0113 19.423C11.282 19.104 11.6608 18.9096 12.0779 18.8755C12.4952 18.8414 12.9002 18.9718 13.2192 19.2425C13.8777 19.8014 13.9587 20.7918 13.3997 21.4504L10.7663 24.5526L7.66397 21.9193C7.00544 21.3604 6.92452 20.3699 7.48341 19.7114Z" fill="#FEBE98"/>
<path d="M39.9477 9.16416L38.3796 4.66701C38.2575 4.31723 37.9408 4.07216 37.5716 4.042L24.3377 2.96019C23.969 2.92984 23.6161 3.12032 23.4389 3.44575L21.1613 7.62852C21.0098 7.90675 21.0092 8.24276 21.1598 8.52145C21.3103 8.80024 21.5916 8.98388 21.9074 9.00973L22.4277 9.05225L22.3246 13.7885L21.5109 13.722C21.2514 13.7012 20.9943 13.7888 20.8021 13.9648C20.6099 14.1409 20.4997 14.3891 20.4982 14.6498L20.4194 27.9819C20.4166 28.4716 20.7915 28.8809 21.2797 28.9208L21.9931 28.9792L21.858 35.1813C21.8472 35.6766 22.2241 36.0946 22.718 36.1351L33.7821 37.0395C33.808 37.0416 33.8337 37.0427 33.8593 37.0427C34.3211 37.0427 34.7194 36.7029 34.7856 36.2381L35.6595 30.0964L36.373 30.1547C36.3988 30.1568 36.4246 30.1579 36.4501 30.1579C36.9063 30.1579 37.3016 29.8261 37.3742 29.368L39.4618 16.2001C39.5026 15.9426 39.4342 15.6798 39.2732 15.4748C39.1121 15.2699 38.8729 15.1412 38.613 15.1201L37.7992 15.0536L38.4667 10.3634L38.9872 10.406C39.0127 10.4081 39.0383 10.4091 39.0636 10.4091C39.3519 10.4091 39.626 10.2759 39.8041 10.0457C39.9981 9.79487 40.0521 9.46327 39.9477 9.16416ZM33.0554 35.1007L23.7497 34.34L23.8632 29.1319L33.7892 29.9433L33.0554 35.1007ZM35.6601 28.2171L22.2976 27.1246L22.3653 15.6708L37.4537 16.9042L35.6601 28.2171ZM24.1948 13.9412L24.2979 9.20536L36.5964 10.2108L35.9291 14.9005L24.1948 13.9412ZM24.7924 4.8765L36.8117 5.85905L37.7053 8.42181L23.4945 7.26011L24.7924 4.8765Z" fill="#393939"/>
<path d="M24.7924 4.8765L36.8117 5.85905L37.7053 8.42181L23.4945 7.26011L24.7924 4.8765Z" fill="#D2E4CC"/>
<path d="M35.6601 28.2171L22.2976 27.1246L22.3653 15.6708L37.4537 16.9042L35.6601 28.2171Z" fill="#D2E4CC"/>
<path d="M28.4118 26.4789C28.5971 26.6972 28.8608 26.8094 29.1263 26.8094C29.3404 26.8094 29.5558 26.7363 29.7319 26.5869L33.5481 23.3474C34.9938 22.1202 35.1717 19.9454 33.9443 18.4996C32.9032 17.273 31.1801 16.9591 29.7986 17.6414C28.5464 16.7437 26.7953 16.7736 25.5686 17.8149C24.8682 18.4095 24.4413 19.2411 24.3664 20.1568C24.2916 21.0723 24.5778 21.9624 25.1723 22.6628L28.4118 26.4789ZM26.2332 20.3093C26.2673 19.8923 26.4617 19.5135 26.7808 19.2428C27.0747 18.9932 27.4348 18.8713 27.7933 18.8713C28.2376 18.8713 28.6793 19.0588 28.9888 19.4233C29.3233 19.8176 29.9145 19.866 30.3087 19.5312C30.967 18.9723 31.9577 19.0532 32.5166 19.7116C33.0756 20.3702 32.9946 21.3606 32.336 21.9196L29.2338 24.5529L26.6004 21.4507C26.3295 21.1316 26.1991 20.7263 26.2332 20.3093Z" fill="#393939"/>
<path d="M26.2332 20.3093C26.2673 19.8923 26.4617 19.5135 26.7808 19.2428C27.0747 18.9932 27.4348 18.8713 27.7933 18.8713C28.2376 18.8713 28.6793 19.0588 28.9888 19.4233C29.3233 19.8176 29.9145 19.866 30.3087 19.5312C30.967 18.9723 31.9577 19.0532 32.5166 19.7116C33.0756 20.3702 32.9946 21.3606 32.336 21.9196L29.2338 24.5529L26.6004 21.4507C26.3295 21.1316 26.1991 20.7263 26.2332 20.3093Z" fill="#FEBE98"/>
</g>
<defs>
<clipPath id="clip0_206_5804">
<rect width="40" height="40" fill="white"/>
</clipPath>
</defs>
</svg>
