<svg width="40" height="40" viewBox="0 0 40 40" fill="none" xmlns="http://www.w3.org/2000/svg">
<path d="M8.30414 19.4247C10.4375 19.4247 12.1669 17.6953 12.1669 15.562C12.1669 13.4286 10.4375 11.6992 8.30414 11.6992C6.17081 11.6992 4.44141 13.4286 4.44141 15.562C4.44141 17.6953 6.17081 19.4247 8.30414 19.4247Z" fill="#F6EDD4"/>
<path d="M10.0471 15.8934C12.1804 15.8934 13.9098 14.164 13.9098 12.0307C13.9098 9.89737 12.1804 8.16797 10.0471 8.16797C7.91373 8.16797 6.18433 9.89737 6.18433 12.0307C6.18433 14.164 7.91373 15.8934 10.0471 15.8934Z" fill="#F6EDD4"/>
<path d="M14.5864 19.7557C16.7197 19.7557 18.4491 18.0263 18.4491 15.893C18.4491 13.7597 16.7197 12.0303 14.5864 12.0303C12.453 12.0303 10.7236 13.7597 10.7236 15.893C10.7236 18.0263 12.453 19.7557 14.5864 19.7557Z" fill="#F6EDD4"/>
<path d="M12.7736 12.0292C14.907 12.0292 16.6364 10.2998 16.6364 8.16645C16.6364 6.03312 14.907 4.30371 12.7736 4.30371C10.6403 4.30371 8.91089 6.03312 8.91089 8.16645C8.91089 10.2998 10.6403 12.0292 12.7736 12.0292Z" fill="#F6EDD4"/>
<path d="M20.5461 19.7557C22.6794 19.7557 24.4088 18.0263 24.4088 15.893C24.4088 13.7597 22.6794 12.0303 20.5461 12.0303C18.4128 12.0303 16.6833 13.7597 16.6833 15.893C16.6833 18.0263 18.4128 19.7557 20.5461 19.7557Z" fill="#F6EDD4"/>
<path d="M23.2026 11.2577C25.3359 11.2577 27.0653 9.52829 27.0653 7.39496C27.0653 5.26163 25.3359 3.53223 23.2026 3.53223C21.0692 3.53223 19.3398 5.26163 19.3398 7.39496C19.3398 9.52829 21.0692 11.2577 23.2026 11.2577Z" fill="#F6EDD4"/>
<path d="M17.85 11.2577C19.9834 11.2577 21.7128 9.52829 21.7128 7.39496C21.7128 5.26163 19.9834 3.53223 17.85 3.53223C15.7167 3.53223 13.9873 5.26163 13.9873 7.39496C13.9873 9.52829 15.7167 11.2577 17.85 11.2577Z" fill="#F6EDD4"/>
<path d="M19.3398 15.121C21.4731 15.121 23.2025 13.3916 23.2025 11.2582C23.2025 9.12491 21.4731 7.39551 19.3398 7.39551C17.2065 7.39551 15.4771 9.12491 15.4771 11.2582C15.4771 13.3916 17.2065 15.121 19.3398 15.121Z" fill="#F6EDD4"/>
<path d="M15.477 15.8925C17.6103 15.8925 19.3397 14.1631 19.3397 12.0297C19.3397 9.8964 17.6103 8.16699 15.477 8.16699C13.3437 8.16699 11.6143 9.8964 11.6143 12.0297C11.6143 14.1631 13.3437 15.8925 15.477 15.8925Z" fill="#F6EDD4"/>
<path d="M26.789 17.8798C28.9223 17.8798 30.6517 16.1504 30.6517 14.017C30.6517 11.8837 28.9223 10.1543 26.789 10.1543C24.6557 10.1543 22.9263 11.8837 22.9263 14.017C22.9263 16.1504 24.6557 17.8798 26.789 17.8798Z" fill="#F6EDD4"/>
<path d="M31.038 19.9764C33.1714 19.9764 34.9008 18.247 34.9008 16.1137C34.9008 13.9804 33.1714 12.251 31.038 12.251C28.9047 12.251 27.1753 13.9804 27.1753 16.1137C27.1753 18.247 28.9047 19.9764 31.038 19.9764Z" fill="#F6EDD4"/>
<path d="M32.2834 18.5419C34.4167 18.5419 36.1461 16.8125 36.1461 14.6791C36.1461 12.5458 34.4167 10.8164 32.2834 10.8164C30.1501 10.8164 28.4207 12.5458 28.4207 14.6791C28.4207 16.8125 30.1501 18.5419 32.2834 18.5419Z" fill="#F6EDD4"/>
<path d="M26.6181 21.5214C28.7514 21.5214 30.4808 19.792 30.4808 17.6586C30.4808 15.5253 28.7514 13.7959 26.6181 13.7959C24.4848 13.7959 22.7554 15.5253 22.7554 17.6586C22.7554 19.792 24.4848 21.5214 26.6181 21.5214Z" fill="#F6EDD4"/>
<path d="M35.3426 9.71145C35.3426 9.85801 35.3365 10.0045 35.3182 10.151C35.306 10.2793 35.2876 10.4075 35.2633 10.5295C35.2572 10.5723 35.251 10.6089 35.2389 10.6516C35.2144 10.7676 35.1839 10.8837 35.1473 10.9936C35.1045 11.1279 35.0557 11.2621 35.0008 11.3904C34.9519 11.5187 34.8908 11.6407 34.8237 11.7629V11.7689H34.8176C34.5123 12.3367 34.0789 12.8252 33.5599 13.1915C32.8516 13.7104 31.9847 14.0157 31.0383 14.0157C30.9101 14.0157 30.7819 14.0096 30.6537 13.9913C30.1408 13.9547 29.6525 13.8204 29.2129 13.6067C29.0236 13.5212 28.8466 13.4235 28.6756 13.3075C28.6206 13.277 28.5657 13.2404 28.5169 13.1916C28.3459 13.0756 28.1872 12.9412 28.0406 12.8007C27.3324 12.1109 26.8623 11.1889 26.7585 10.1571C26.7401 10.0106 26.7341 9.8641 26.7341 9.71145C26.7341 9.63207 26.7341 9.5527 26.7463 9.47332C26.8623 7.20824 28.7428 5.40723 31.0384 5.40723H31.069L32.1862 5.56598C32.9372 5.76738 33.6027 6.17652 34.1216 6.7198C34.1583 6.75645 34.1949 6.78707 34.2254 6.82363C34.2559 6.8541 34.2803 6.87855 34.2987 6.9091C34.3108 6.92129 34.3231 6.93965 34.3353 6.95184C34.4391 7.06785 34.5246 7.18387 34.604 7.3059C34.6651 7.39145 34.72 7.47684 34.7688 7.56848C34.7933 7.61121 34.8176 7.65395 34.8421 7.69676C34.9642 7.92871 35.068 8.17293 35.1473 8.42941C35.1596 8.47215 35.1718 8.51481 35.1779 8.55762C35.1779 8.55762 35.184 8.55762 35.184 8.56371C35.2145 8.66145 35.239 8.7591 35.2573 8.86285C35.3121 9.13746 35.3426 9.4184 35.3426 9.71145Z" fill="#F6EDD4"/>
<path d="M31.0932 5.85312C31.0932 7.89234 29.6707 9.6018 27.7658 10.0413C27.4545 10.1208 27.1247 10.1573 26.7889 10.1573H26.7584C26.4897 10.1573 26.2272 10.1269 25.9769 10.078C25.3663 9.96203 24.8047 9.71781 24.3224 9.37594C23.8217 9.02789 23.4004 8.57609 23.0952 8.05101C23.0219 7.94109 22.9609 7.82508 22.9059 7.70305C22.6372 7.14125 22.4846 6.51242 22.4846 5.85312C22.4846 4.99836 22.7349 4.20461 23.1684 3.53305C23.5409 2.94086 24.0659 2.44625 24.6826 2.10437C25.3053 1.75039 26.0197 1.54883 26.7889 1.54883C28.5412 1.54883 30.0492 2.59281 30.7147 4.09477L31.0688 5.4075C31.087 5.55398 31.0932 5.70047 31.0932 5.85312Z" fill="#F6EDD4"/>
<path d="M8.30414 14.954C10.6813 14.954 12.6083 13.027 12.6083 10.6498C12.6083 8.27273 10.6813 6.3457 8.30414 6.3457C5.92703 6.3457 4 8.27273 4 10.6498C4 13.027 5.92703 14.954 8.30414 14.954Z" fill="#F6EDD4"/>
<path d="M10.7238 12.1405C13.1009 12.1405 15.028 10.2135 15.028 7.83637C15.028 5.45926 13.1009 3.53223 10.7238 3.53223C8.34671 3.53223 6.41968 5.45926 6.41968 7.83637C6.41968 10.2135 8.34671 12.1405 10.7238 12.1405Z" fill="#F6EDD4"/>
<path d="M15.028 9.22352C17.4051 9.22352 19.3322 7.29649 19.3322 4.91937C19.3322 2.54226 17.4051 0.615234 15.028 0.615234C12.6509 0.615234 10.7239 2.54226 10.7239 4.91937C10.7239 7.29649 12.6509 9.22352 15.028 9.22352Z" fill="#F6EDD4"/>
<path d="M20.9875 8.60828C23.3646 8.60828 25.2916 6.68125 25.2916 4.30414C25.2916 1.92703 23.3646 0 20.9875 0C18.6104 0 16.6833 1.92703 16.6833 4.30414C16.6833 6.68125 18.6104 8.60828 20.9875 8.60828Z" fill="#F6EDD4"/>
<path d="M25.3857 16.9491C27.519 16.9491 29.2484 15.2197 29.2484 13.0864C29.2484 10.953 27.519 9.22363 25.3857 9.22363C23.2524 9.22363 21.5229 10.953 21.5229 13.0864C21.5229 15.2197 23.2524 16.9491 25.3857 16.9491Z" fill="#F6EDD4"/>
<path d="M10.9212 38.1381H7.25797L6.7268 34.1147L5.54234 25.0666L4.44336 16.7266H8.9125L9.15672 19.3275L9.33984 21.2691L10.2191 30.6224L10.8602 37.4727L10.9212 38.1381Z" fill="#D14846"/>
<path d="M14.5867 38.1379H10.9212L8.91113 16.7285H13.3807L14.5867 38.1379Z" fill="white"/>
<path d="M18.2521 38.1379H14.5866L13.3806 16.7285H17.8501L18.2521 38.1379Z" fill="#D14846"/>
<path d="M21.9176 38.1379H18.2521L17.8501 16.7285H22.3196L21.9176 38.1379Z" fill="white"/>
<path d="M25.5829 38.1379H21.9175L22.3195 16.7285H26.789L25.5829 38.1379Z" fill="#D14846"/>
<path d="M29.2485 38.1379H25.583L26.789 16.7285H31.2586L29.2485 38.1379Z" fill="white"/>
<path d="M32.914 38.1379H29.2485L31.2586 16.7285H35.7281L32.914 38.1379Z" fill="#D14846"/>
<path d="M32.9187 37.5635H7.25781V39.9996H32.9187V37.5635Z" fill="#F2F2F2"/>
<path opacity="0.3" d="M23.4612 5.75785C23.4612 5.28215 23.072 4.89301 22.5963 4.89301C22.3381 4.89301 22.1081 5.00996 21.9493 5.19082C21.81 4.89879 21.514 4.69434 21.1705 4.69434C20.9341 4.69434 20.7192 4.79074 20.5627 4.94582C20.4062 4.79074 20.1914 4.69434 19.955 4.69434C19.4793 4.69434 19.0901 5.08355 19.0901 5.55918C19.0901 5.9748 19.3872 6.32418 19.7795 6.4059C19.7613 6.47566 19.7484 6.54746 19.7484 6.6227C19.7484 7.0984 20.1377 7.48754 20.6134 7.48754C20.846 7.48754 21.0571 7.39348 21.213 7.2427C21.2971 7.2702 21.3852 7.28895 21.4782 7.28895C21.4832 7.28895 21.4879 7.28754 21.4929 7.28746C21.6505 7.50434 21.9042 7.64738 22.1911 7.64738C22.6668 7.64738 23.056 7.25824 23.056 6.78254C23.056 6.68793 23.0368 6.59832 23.0084 6.51293C23.2764 6.36551 23.4612 6.08371 23.4612 5.75785Z" fill="#E4AC23"/>
<path opacity="0.3" d="M27.7854 12.7781C28.0006 13.2263 28.5433 13.4168 28.9915 13.2016C29.2347 13.0848 29.3984 12.8706 29.4662 12.6282C29.7296 12.8403 30.101 12.899 30.4246 12.7436C30.6473 12.6367 30.8061 12.4486 30.8833 12.2317C31.101 12.307 31.3469 12.3006 31.5697 12.1937C32.0178 11.9785 32.2083 11.4357 31.9932 10.9876C31.8051 10.596 31.3671 10.4013 30.9605 10.5019C30.9462 10.4279 30.9258 10.3545 30.8917 10.2835C30.6765 9.83541 30.1337 9.64486 29.6856 9.8601C29.4665 9.96533 29.3101 10.1495 29.2315 10.362C29.1397 10.3742 29.0483 10.3964 28.9607 10.4385C28.956 10.4408 28.9522 10.4442 28.9475 10.4466C28.7009 10.3136 28.3972 10.2936 28.1269 10.4235C27.6787 10.6387 27.4881 11.1814 27.7033 11.6295C27.7462 11.7187 27.8047 11.7944 27.8701 11.862C27.6845 12.122 27.638 12.4711 27.7854 12.7781Z" fill="#E4AC23"/>
<path opacity="0.3" d="M9.82169 10.6305C9.55669 11.0967 9.72137 11.695 10.1876 11.96C10.4407 12.1038 10.7312 12.1173 10.9877 12.0285C10.9615 12.3923 11.1378 12.7577 11.4745 12.9491C11.7062 13.0808 11.9705 13.1059 12.2103 13.0411C12.2773 13.2803 12.4341 13.4945 12.6658 13.6262C13.1321 13.8912 13.7304 13.7266 13.9954 13.2603C14.227 12.853 14.1304 12.3449 13.7914 12.0463C13.8482 11.9882 13.9007 11.9249 13.9427 11.8512C14.2077 11.3849 14.043 10.7866 13.5768 10.5216C13.3488 10.392 13.0895 10.3666 12.8527 10.4275C12.7855 10.3537 12.7097 10.2862 12.6185 10.2345C12.6136 10.2316 12.6082 10.2304 12.6032 10.2277C12.5697 9.92742 12.4007 9.64586 12.1194 9.48601C11.6532 9.22101 11.0549 9.38562 10.7899 9.8518C10.7372 9.94453 10.7061 10.043 10.6863 10.1426C10.3414 10.1378 10.0032 10.3111 9.82169 10.6305Z" fill="#E4AC23"/>
<path opacity="0.06" d="M7.25798 38.1382V38.5289V39.3287H8.05782H32.9188V38.1199L35.7274 16.7267H35.5564C35.6541 16.574 35.7396 16.4092 35.8189 16.2382C35.8434 16.1771 35.8677 16.1161 35.8922 16.0551C35.9594 15.8781 36.0204 15.6949 36.057 15.4995C36.0753 15.4323 36.0876 15.3652 36.0937 15.298C36.1059 15.2675 36.112 15.2308 36.112 15.2004C36.112 15.1882 36.1181 15.1698 36.1181 15.1576C36.1242 15.1027 36.1303 15.0477 36.1364 14.9989C36.1364 14.9928 36.1364 14.9805 36.1364 14.9744C36.1425 14.8768 36.1486 14.779 36.1486 14.6814C36.1486 14.5714 36.1425 14.4677 36.1364 14.3578C36.1303 14.3211 36.1303 14.2845 36.1242 14.2479C36.1181 14.1624 36.1059 14.0769 36.0815 13.9914C36.0815 13.9548 36.0693 13.9243 36.0632 13.8877C36.0449 13.7961 36.0266 13.7045 35.9899 13.6129C35.9899 13.6068 35.9899 13.6007 35.9899 13.5946C35.9838 13.5764 35.9838 13.5519 35.9716 13.5336C35.9716 13.5214 35.9656 13.5153 35.9595 13.503C35.9412 13.4297 35.9167 13.3626 35.8862 13.2954C35.8679 13.2405 35.8495 13.1855 35.819 13.1306C35.819 13.1245 35.819 13.1245 35.8129 13.1184C35.7884 13.0512 35.758 12.9841 35.7213 12.923C35.6725 12.8254 35.6237 12.7337 35.5626 12.6421C35.5138 12.5628 35.4649 12.4834 35.4038 12.4101C35.3856 12.3796 35.3611 12.349 35.3367 12.3186C35.2817 12.2392 35.2206 12.1659 35.1474 12.0988C35.1291 12.0682 35.1046 12.0439 35.0802 12.0194L35.0741 12.0133C35.0131 11.9461 34.9581 11.8912 34.8909 11.8363C34.8726 11.8118 34.8481 11.7875 34.8237 11.7691V11.763C34.8909 11.6409 34.9519 11.5188 35.0007 11.3906C35.0556 11.2624 35.1045 11.1281 35.1472 10.9937C35.1838 10.8838 35.2144 10.7678 35.2388 10.6518C35.2509 10.6091 35.257 10.5725 35.2632 10.5297C35.2877 10.4076 35.3059 10.2794 35.3181 10.1512C35.3364 10.0046 35.3426 9.85816 35.3426 9.7116C35.3426 9.41855 35.312 9.1377 35.2571 8.86293C35.2388 8.75918 35.2144 8.66145 35.1838 8.56379C35.1838 8.5577 35.1777 8.5577 35.1777 8.5577C35.1716 8.51496 35.1595 8.47223 35.1472 8.42949C35.0678 8.17309 34.9641 7.92887 34.842 7.69684C34.8175 7.6541 34.7931 7.61137 34.7687 7.56863C34.7199 7.47707 34.6649 7.3916 34.6038 7.30613C34.5245 7.18402 34.439 7.06801 34.3352 6.95199C34.3231 6.93981 34.3108 6.92145 34.2986 6.90926C34.2498 6.84207 34.1887 6.78105 34.1277 6.71387L34.1216 6.71996L33.7309 7.11074L29.5365 11.3051L29.0298 11.8118L28.0407 12.8009L27.0272 13.8144L24.3591 16.4825L24.1149 16.7267L24.0783 16.7633L22.7717 18.0699L22.2833 18.5583L21.1355 19.7061L17.9668 22.8748L13.9556 26.8861L10.2191 30.6225L6.72681 34.1148L7.25798 38.1382Z" fill="#040000"/>
</svg>
