<svg width="24" height="24" viewBox="0 0 24 24" fill="none" xmlns="http://www.w3.org/2000/svg">
<mask id="path-1-inside-1_998_3392" fill="white">
<path fill-rule="evenodd" clip-rule="evenodd" d="M17.2038 10.7959L18.9998 8.99994C19.545 8.45469 19.8176 8.18207 19.9634 7.88797C20.2407 7.32842 20.2407 6.67146 19.9634 6.11191C19.8176 5.81782 19.545 5.54519 18.9998 4.99994C18.4545 4.45469 18.1819 4.18207 17.8878 4.03633C17.3282 3.75905 16.6713 3.75905 16.1117 4.03633C15.8176 4.18207 15.545 4.45469 14.9998 4.99994L13.1811 6.8186C14.145 8.4692 15.5311 9.84476 17.2038 10.7959ZM11.7267 8.27305L4.85615 15.1436C4.43109 15.5686 4.21856 15.7812 4.07883 16.0422C3.93909 16.3033 3.88015 16.5981 3.76226 17.1875L3.14686 20.2645C3.08034 20.5971 3.04708 20.7634 3.14168 20.858C3.23629 20.9526 3.4026 20.9194 3.73521 20.8529L6.81219 20.2375C7.40164 20.1196 7.69637 20.0606 7.95746 19.9209C8.21856 19.7812 8.43109 19.5686 8.85615 19.1436L15.7456 12.2542C14.1239 11.2385 12.7522 9.87622 11.7267 8.27305Z"/>
</mask>
<path d="M17.2038 10.7959L16.7094 11.6652L17.372 12.042L17.9109 11.5031L17.2038 10.7959ZM18.9998 8.99994L18.2927 8.29284L18.2927 8.29284L18.9998 8.99994ZM19.9634 7.88797L20.8594 8.33199L20.8594 8.33199L19.9634 7.88797ZM19.9634 6.11191L20.8594 5.66789L20.8594 5.66789L19.9634 6.11191ZM18.9998 4.99994L18.2927 5.70705L18.2927 5.70705L18.9998 4.99994ZM17.8878 4.03633L17.4438 4.93235L17.4438 4.93235L17.8878 4.03633ZM16.1117 4.03633L16.5558 4.93235L16.5558 4.93235L16.1117 4.03633ZM14.9998 4.99994L14.2927 4.29284L14.9998 4.99994ZM13.1811 6.8186L12.474 6.11149L11.9287 6.65685L12.3176 7.32286L13.1811 6.8186ZM11.7267 8.27305L12.569 7.73418L11.8989 6.68659L11.0196 7.56595L11.7267 8.27305ZM4.85615 15.1436L4.14904 14.4365L4.14904 14.4365L4.85615 15.1436ZM4.07883 16.0422L3.19715 15.5704L3.19715 15.5704L4.07883 16.0422ZM3.76226 17.1875L4.74284 17.3836L3.76226 17.1875ZM3.14686 20.2645L4.12744 20.4606L4.12744 20.4606L3.14686 20.2645ZM3.14168 20.858L3.84879 20.1509L3.14168 20.858ZM3.73521 20.8529L3.53909 19.8723L3.53909 19.8723L3.73521 20.8529ZM6.81219 20.2375L6.61607 19.2569L6.61607 19.2569L6.81219 20.2375ZM7.95746 19.9209L8.42932 20.8026L8.42932 20.8026L7.95746 19.9209ZM8.85615 19.1436L8.14905 18.4365L8.14905 18.4365L8.85615 19.1436ZM15.7456 12.2542L16.4527 12.9613L17.3407 12.0733L16.2763 11.4067L15.7456 12.2542ZM17.9109 11.5031L19.7069 9.70705L18.2927 8.29284L16.4967 10.0888L17.9109 11.5031ZM19.7069 9.70705C20.195 9.21889 20.6224 8.8102 20.8594 8.33199L19.0674 7.44396C19.0129 7.55394 18.895 7.69049 18.2927 8.29284L19.7069 9.70705ZM20.8594 8.33199C21.2753 7.49266 21.2753 6.50723 20.8594 5.66789L19.0674 6.55593C19.206 6.8357 19.206 7.16418 19.0674 7.44396L20.8594 8.33199ZM20.8594 5.66789C20.6224 5.18969 20.195 4.78099 19.7069 4.29283L18.2927 5.70705C18.895 6.30939 19.0129 6.44595 19.0674 6.55593L20.8594 5.66789ZM19.7069 4.29284C19.2187 3.80468 18.81 3.37728 18.3318 3.14031L17.4438 4.93235C17.5538 4.98685 17.6903 5.10471 18.2927 5.70705L19.7069 4.29284ZM18.3318 3.14031C17.4925 2.72439 16.5071 2.72439 15.6677 3.14031L16.5558 4.93235C16.8355 4.79371 17.164 4.79371 17.4438 4.93235L18.3318 3.14031ZM15.6677 3.14031C15.1895 3.37728 14.7808 3.80468 14.2927 4.29284L15.7069 5.70705C16.3092 5.10471 16.4458 4.98685 16.5558 4.93235L15.6677 3.14031ZM14.2927 4.29284L12.474 6.11149L13.8882 7.5257L15.7069 5.70705L14.2927 4.29284ZM12.3176 7.32286C13.3698 9.12487 14.8831 10.6266 16.7094 11.6652L17.6981 9.92667C16.1792 9.06289 14.9201 7.81352 14.0447 6.31433L12.3176 7.32286ZM11.0196 7.56595L4.14904 14.4365L5.56326 15.8507L12.4338 8.98016L11.0196 7.56595ZM4.14904 14.4365C3.76521 14.8203 3.42282 15.1487 3.19715 15.5704L4.9605 16.5141C5.0143 16.4136 5.09697 16.317 5.56326 15.8507L4.14904 14.4365ZM3.19715 15.5704C2.97149 15.9921 2.88813 16.4591 2.78168 16.9914L4.74284 17.3836C4.87216 16.737 4.9067 16.6146 4.9605 16.5141L3.19715 15.5704ZM2.78168 16.9914L2.16628 20.0684L4.12744 20.4606L4.74284 17.3836L2.78168 16.9914ZM2.16628 20.0684C2.13949 20.2024 2.09455 20.4136 2.08513 20.6C2.0747 20.8061 2.09175 21.2223 2.43458 21.5651L3.84879 20.1509C3.96012 20.2623 4.02694 20.3933 4.05907 20.513C4.08694 20.6169 4.08307 20.6912 4.08257 20.701C4.08199 20.7126 4.08169 20.7032 4.09018 20.654C4.09842 20.6061 4.11002 20.5477 4.12744 20.4606L2.16628 20.0684ZM2.43458 21.5651C2.7774 21.908 3.19366 21.925 3.39971 21.9146C3.58609 21.9052 3.79736 21.8602 3.93133 21.8334L3.53909 19.8723C3.45199 19.8897 3.3936 19.9013 3.34574 19.9095C3.29648 19.918 3.28713 19.9177 3.29868 19.9171C3.30856 19.9166 3.38281 19.9128 3.48669 19.9406C3.60645 19.9728 3.73746 20.0396 3.84879 20.1509L2.43458 21.5651ZM3.93132 21.8334L7.0083 21.218L6.61607 19.2569L3.53909 19.8723L3.93132 21.8334ZM7.0083 21.218C7.54059 21.1116 8.00766 21.0282 8.42932 20.8026L7.48561 19.0392C7.38507 19.093 7.26269 19.1276 6.61607 19.2569L7.0083 21.218ZM8.42932 20.8026C8.85098 20.5769 9.17943 20.2345 9.56326 19.8507L8.14905 18.4365C7.68276 18.9027 7.58614 18.9854 7.48561 19.0392L8.42932 20.8026ZM9.56326 19.8507L16.4527 12.9613L15.0384 11.5471L8.14905 18.4365L9.56326 19.8507ZM16.2763 11.4067C14.7806 10.4698 13.5151 9.21312 12.569 7.73418L10.8843 8.81193C11.9893 10.5393 13.4672 12.0072 15.2148 13.1017L16.2763 11.4067Z" fill="#393939" mask="url(#path-1-inside-1_998_3392)"/>
</svg>
