<svg width="40" height="40" viewBox="0 0 40 40" fill="none" xmlns="http://www.w3.org/2000/svg">
<path d="M8.33333 16.667C6.5 16.667 5 18.167 5 20.0003C5 21.8337 6.5 23.3337 8.33333 23.3337C10.1667 23.3337 11.6667 21.8337 11.6667 20.0003C11.6667 18.167 10.1667 16.667 8.33333 16.667Z" stroke="#393939" stroke-width="1.5"/>
<path d="M31.6666 16.667C29.8333 16.667 28.3333 18.167 28.3333 20.0003C28.3333 21.8337 29.8333 23.3337 31.6666 23.3337C33.4999 23.3337 34.9999 21.8337 34.9999 20.0003C34.9999 18.167 33.4999 16.667 31.6666 16.667Z" stroke="#393939" stroke-width="1.5"/>
<path d="M20.0001 16.667C18.1667 16.667 16.6667 18.167 16.6667 20.0003C16.6667 21.8337 18.1667 23.3337 20.0001 23.3337C21.8334 23.3337 23.3334 21.8337 23.3334 20.0003C23.3334 18.167 21.8334 16.667 20.0001 16.667Z" stroke="#393939" stroke-width="1.5"/>
</svg>
