<svg width="24" height="27" viewBox="0 0 24 27" fill="none" xmlns="http://www.w3.org/2000/svg">
<path d="M7.05 20.5744C5.51 20.5744 4.34 19.9995 3.54 18.8498C2.74 17.7001 2.36 16.4091 2.4 14.977L1.86 14.16C1.64 13.8171 1.275 13.0406 0.765 11.8303C0.255 10.62 0 9.09712 0 7.26156C0 5.18395 0.51 3.45428 1.53 2.07257C2.55 0.690857 3.84 0 5.4 0C7.1 0 8.425 0.761455 9.375 2.28437C10.325 3.80728 10.8 5.46634 10.8 7.26156C10.8 8.43148 10.64 9.51063 10.32 10.499C10 11.4874 9.72 12.2841 9.48 12.8893L9.72 13.2826C9.88 13.565 10.1 14.0138 10.38 14.629C10.66 15.2442 10.8 15.8847 10.8 16.5503C10.8 17.7001 10.445 18.6582 9.735 19.4247C9.025 20.1912 8.13 20.5744 7.05 20.5744ZM3.9 12.8288L7.2 12.1631C7.46 11.5176 7.725 10.7814 7.995 9.95439C8.265 9.12738 8.4 8.22977 8.4 7.26156C8.4 6.0513 8.125 4.94189 7.575 3.93334C7.025 2.92479 6.3 2.42052 5.4 2.42052C4.5 2.42052 3.775 2.92479 3.225 3.93334C2.675 4.94189 2.4 6.0513 2.4 7.26156C2.4 8.53233 2.575 9.65687 2.925 10.6352C3.275 11.6135 3.6 12.3447 3.9 12.8288ZM7.05 18.1539C7.43 18.1539 7.75 18.0127 8.01 17.7303C8.27 17.4479 8.4 17.0546 8.4 16.5503C8.4 16.2074 8.32 15.8544 8.16 15.4913C8 15.1282 7.84 14.8055 7.68 14.5231L4.8 15.1282C4.8 15.9351 4.975 16.6411 5.325 17.2462C5.675 17.8513 6.25 18.1539 7.05 18.1539ZM16.95 26.6257C15.87 26.6257 14.975 26.2425 14.265 25.476C13.555 24.7095 13.2 23.7514 13.2 22.6016C13.2 21.936 13.34 21.2955 13.62 20.6803C13.9 20.0651 14.12 19.6163 14.28 19.3339L14.52 18.9406C14.28 18.3354 14 17.5387 13.68 16.5503C13.36 15.5619 13.2 14.4828 13.2 13.3129C13.2 11.5176 13.675 9.85857 14.625 8.33566C15.575 6.81275 16.9 6.0513 18.6 6.0513C20.16 6.0513 21.45 6.74216 22.47 8.12387C23.49 9.50558 24 11.2352 24 13.3129C24 15.1484 23.745 16.6663 23.235 17.8665C22.725 19.0666 22.36 19.8382 22.14 20.1811L21.6 21.0283C21.62 22.4604 21.235 23.7514 20.445 24.9011C19.655 26.0508 18.49 26.6257 16.95 26.6257ZM20.1 18.8801C20.4 18.396 20.725 17.6698 21.075 16.7016C21.425 15.7334 21.6 14.6038 21.6 13.3129C21.6 12.1026 21.325 10.9932 20.775 9.98464C20.225 8.97609 19.5 8.47182 18.6 8.47182C17.7 8.47182 16.975 8.97609 16.425 9.98464C15.875 10.9932 15.6 12.1026 15.6 13.3129C15.6 14.2811 15.735 15.1736 16.005 15.9906C16.275 16.8075 16.54 17.5488 16.8 18.2144L20.1 18.8801ZM16.95 24.2052C17.75 24.2052 18.325 23.9026 18.675 23.2975C19.025 22.6924 19.2 21.9864 19.2 21.1795L16.32 20.5744C16.16 20.8568 16 21.1795 15.84 21.5426C15.68 21.9057 15.6 22.2587 15.6 22.6016C15.6 23.005 15.725 23.3731 15.975 23.706C16.225 24.0388 16.55 24.2052 16.95 24.2052Z" fill="#393939"/>
</svg>
