<svg width="40" height="40" viewBox="0 0 40 40" fill="none" xmlns="http://www.w3.org/2000/svg">
<path d="M30.0156 32.9062C30.0156 34.1328 29.0195 35.1289 27.793 35.1289H12.9648C11.7383 35.1289 10.7422 34.1328 10.7422 32.9062V6.96484C10.7422 5.73828 11.7383 4.74219 12.9648 4.74219H27.7891C29.0156 4.74219 30.0117 5.73828 30.0117 6.96484V32.9062H30.0156Z" fill="#96C8D1"/>
<path d="M13.707 7.70703H27.0508V19.5664H13.707V7.70703Z" fill="#EDEDED"/>
<path d="M27.7891 4H12.9648C11.3281 4 10 5.32812 10 6.96484V32.9062C10 34.543 11.332 35.8711 12.9648 35.8711H27.7891C29.4258 35.8711 30.7539 34.5391 30.7539 32.9062V6.96484C30.7539 5.32812 29.4258 4 27.7891 4ZM29.2734 32.9062C29.2734 33.7227 28.6094 34.3906 27.7891 34.3906H12.9648C12.1484 34.3906 11.4805 33.7266 11.4805 32.9062V6.96484C11.4805 6.14844 12.1445 5.48047 12.9648 5.48047H27.7891C28.6055 5.48047 29.2734 6.14453 29.2734 6.96484V32.9062Z" fill="#393939"/>
<path d="M27.0508 6.96484H13.707C13.2969 6.96484 12.9648 7.29688 12.9648 7.70703V19.5664C12.9648 19.9766 13.2969 20.3086 13.707 20.3086H27.0508C27.4609 20.3086 27.793 19.9766 27.793 19.5664V7.70703C27.7891 7.29688 27.457 6.96484 27.0508 6.96484ZM26.3086 18.8242H14.4492V8.44922H26.3086V18.8242ZM18.7109 24.3867C18.7109 23.9766 18.3789 23.6445 17.9688 23.6445H16.8555V22.5312C16.8555 22.1211 16.5234 21.7891 16.1133 21.7891C15.7031 21.7891 15.3711 22.1211 15.3711 22.5312V23.6445H14.2578C13.8477 23.6445 13.5156 23.9766 13.5156 24.3867C13.5156 24.7969 13.8477 25.1289 14.2578 25.1289H15.3711V26.2422C15.3711 26.6523 15.7031 26.9844 16.1133 26.9844C16.5234 26.9844 16.8555 26.6523 16.8555 26.2422V25.1289H17.9688C18.3789 25.1289 18.7109 24.7969 18.7109 24.3867ZM23.875 25.1055C23.3633 25.1055 22.9492 25.5195 22.9492 26.0312C22.9492 26.543 23.3633 26.957 23.875 26.957C24.3867 26.957 24.8008 26.543 24.8008 26.0312C24.8008 25.5234 24.3867 25.1055 23.875 25.1055ZM25.9805 22.5117C25.4687 22.5117 25.0547 22.9258 25.0547 23.4375C25.0547 23.9492 25.4687 24.3633 25.9805 24.3633C26.4922 24.3633 26.9062 23.9492 26.9062 23.4375C26.9102 22.9258 26.4922 22.5117 25.9805 22.5117ZM20.2695 30.0898C20.125 29.9453 19.8906 29.9453 19.7461 30.0898L18.2617 31.5742C18.1172 31.7188 18.1172 31.9531 18.2617 32.0977C18.3359 32.1719 18.4297 32.207 18.5234 32.207C18.6172 32.207 18.7148 32.1719 18.7852 32.0977L20.2695 30.6133C20.4141 30.4687 20.4141 30.2344 20.2695 30.0898ZM21.9687 30.0898L20.4844 31.5742C20.3398 31.7188 20.3398 31.9531 20.4844 32.0977C20.5586 32.1719 20.6523 32.207 20.7461 32.207C20.8398 32.207 20.9375 32.1719 21.0078 32.0977L22.4922 30.6133C22.5601 30.5436 22.5979 30.4499 22.5973 30.3525C22.5967 30.2552 22.5577 30.162 22.4889 30.0932C22.42 30.0243 22.3268 29.9854 22.2295 29.9847C22.1321 29.9841 22.0385 30.0219 21.9687 30.0898Z" fill="#393939"/>
<path d="M15.5469 12.8942C15.6406 12.8942 15.7383 12.859 15.8086 12.7848L18.7734 9.81995C18.8414 9.75023 18.8792 9.65656 18.8785 9.5592C18.8779 9.46185 18.839 9.36866 18.7701 9.29982C18.7013 9.23098 18.6081 9.19203 18.5107 9.19141C18.4134 9.19079 18.3197 9.22855 18.25 9.29651L15.2852 12.2614C15.1406 12.4059 15.1406 12.6403 15.2852 12.7848C15.3555 12.859 15.4531 12.8942 15.5469 12.8942Z" fill="#393939"/>
</svg>
