<svg width="40" height="40" viewBox="0 0 40 40" fill="none" xmlns="http://www.w3.org/2000/svg">
<path d="M32.5001 12.5001C32.5001 10.6668 31.0001 9.16678 29.1667 9.16678H24.1667C23.5834 9.16678 23.2501 8.50011 23.5834 8.00011C24.0834 7.16678 24.3334 6.16678 24.0834 5.08345C23.7501 3.41678 22.5001 2.08345 20.9167 1.75011C18.1667 1.16678 15.8334 3.25011 15.8334 5.83345C15.8334 6.66678 16.0834 7.33345 16.4167 8.00011C16.7501 8.50011 16.4167 9.16678 15.7501 9.16678H10.7501C8.91675 9.16678 7.41675 10.6668 7.41675 12.5001V18.3334C7.41675 18.9168 8.08341 19.2501 8.58341 18.9168C9.41675 18.4168 10.4167 18.1668 11.5001 18.4168C13.1667 18.7501 14.5001 20.0001 14.8334 21.5834C15.4167 24.2501 13.3334 26.6668 10.7501 26.6668C9.91675 26.6668 9.25008 26.4168 8.58341 26.0834C8.16675 25.7501 7.50008 26.0834 7.50008 26.6668V31.6668C7.50008 33.5001 9.00008 35.0001 10.8334 35.0001H29.1667C31.0001 35.0001 32.5001 33.5001 32.5001 31.6668V12.5001Z" fill="#FF806D"/>
</svg>
