<svg width="24" height="24" viewBox="0 0 24 24" fill="none" xmlns="http://www.w3.org/2000/svg">
<path d="M3 11.7577C3 10.2349 3 9.47348 3.35288 8.80419C3.70576 8.13489 4.36847 7.63937 5.6939 6.64832L6.97961 5.68697C9.3753 3.89566 10.5732 3 12 3C13.4269 3 14.6247 3.89566 17.0204 5.68697L18.3061 6.64832C19.6315 7.63937 20.2942 8.13489 20.6471 8.80419C21 9.47348 21 10.2349 21 11.7577V16.5137C21 18.6285 21 19.686 20.2468 20.343C19.4937 21 18.2815 21 15.8571 21H8.14286C5.71849 21 4.50631 21 3.75315 20.343C3 19.686 3 18.6285 3 16.5137V11.7577Z" stroke="#33363F" stroke-width="2"/>
<path d="M15 21V14C15 13.4477 14.5523 13 14 13H10C9.44772 13 9 13.4477 9 14V21" stroke="#33363F" stroke-width="2" stroke-linecap="round" stroke-linejoin="round"/>
</svg>
