<svg width="22" height="24" viewBox="0 0 22 24" fill="none" xmlns="http://www.w3.org/2000/svg">
<path d="M16.5238 7.3964C17.7819 7.11703 19.4206 5.86828 19.67 5.25328C19.8163 4.89328 19.0869 4.33078 18.8919 4.1039C18.4456 3.5864 18.6256 3.3314 18.7981 2.71453C18.995 2.01328 18.5281 1.2389 17.8663 0.935151C17.2044 0.631401 16.4131 0.727026 15.7475 1.02328C15.0819 1.31953 14.5138 1.79578 13.9569 2.26453C13.55 2.00765 12.9013 0.873276 11.8513 1.61015C11.1256 2.11828 11.06 3.22453 11.1538 4.10765C11.3731 6.14578 11.8756 7.20328 12.8225 7.48828C14.0188 7.84828 15.3425 7.6589 16.5238 7.3964Z" fill="#FFCA28"/>
<path d="M18.5676 1.5332C18.4083 4.28008 15.7289 6.10258 14.4576 6.90508L15.2826 7.61383C15.2826 7.61383 15.8058 7.62508 16.522 7.39633C17.7501 7.00633 19.5445 5.90383 19.6683 5.2532C19.8501 4.30633 18.8789 4.51258 18.6595 3.76445C18.5451 3.36883 19.2164 2.6207 18.5676 1.5332ZM13.9589 2.26633C13.9589 2.26633 13.4808 1.77695 13.1264 1.55383C12.9501 1.8857 12.8245 2.2457 12.7626 2.61695C12.652 3.26945 12.7626 4.1957 13.0233 4.8857C13.0645 4.99258 13.2183 4.9757 13.2351 4.8632C13.4601 3.38008 13.9589 2.26633 13.9589 2.26633Z" fill="#E2A610"/>
<path d="M10.6175 7.15486C10.6175 7.15486 4.76941 7.78674 2.13128 12.8642C-0.506842 17.9417 1.73566 21.0205 4.10941 22.1417C6.48316 23.263 12.4644 23.6586 16.355 22.7361C20.2457 21.8136 21.2188 19.9011 21.0369 18.0542C20.7725 15.358 18.2675 13.7005 18.2675 13.7005C18.2675 13.7005 18.3669 10.3705 15.7832 8.20861C13.49 6.28861 10.6175 7.15486 10.6175 7.15486Z" fill="#FFCA28"/>
<path d="M13.0175 15.6986C11.7632 14.1161 10.2819 13.9042 9.80755 13.3361C9.5488 13.0267 9.39692 12.7136 9.45505 12.3254C9.51692 11.9129 9.99505 11.6279 10.3663 11.5586C10.7994 11.4761 11.8325 11.5192 12.7007 12.3461C12.9069 12.5411 12.8319 12.8448 12.8263 13.1167C12.8113 13.6998 13.6457 14.2661 14.3207 13.7786C14.9975 13.2892 14.4782 12.1998 14.0413 11.6711C13.7113 11.2717 12.515 10.3923 11.0282 10.2536C10.61 10.2142 8.92817 9.96482 7.95692 11.8117C7.67755 12.3423 7.57442 13.6248 9.03692 14.7086C9.34255 14.9354 10.9288 15.7417 11.3694 16.2648C12.1325 17.1704 11.6094 17.9673 11.0132 18.0723C9.38755 18.3573 8.46692 17.4779 8.2963 16.9961C8.17442 16.6529 8.30192 16.2817 8.14442 15.9592C7.98317 15.6273 7.65317 15.4961 7.30442 15.6067C6.16067 15.9704 6.52442 17.2211 7.03067 17.9092C7.57255 18.6461 8.23817 19.0904 8.9863 19.3342C11.7782 20.2436 13.1207 18.8073 13.355 17.7554C13.5275 16.9848 13.5088 16.3173 13.0175 15.6986Z" fill="#6B4B46"/>
<path d="M14.3132 5.99162C15.8957 6.50725 16.2463 7.93787 16.132 8.32787C15.9951 8.78537 14.242 7.00412 11.6357 7.111C10.7245 7.1485 10.9888 6.58975 11.4107 6.26725C11.9676 5.84162 12.9032 5.53412 14.3132 5.99162Z" fill="#6D4C41"/>
<path d="M14.3132 5.99162C15.8957 6.50725 16.2463 7.93787 16.132 8.32787C15.9951 8.78537 14.242 7.00412 11.6357 7.111C10.7245 7.1485 10.9888 6.58975 11.4107 6.26725C11.9676 5.84162 12.9032 5.53412 14.3132 5.99162Z" fill="#6B4B46"/>
<path d="M17.0918 11.0361C17.2906 10.8993 17.9581 11.1355 18.1456 12.4424C18.2374 13.0818 18.2656 13.7005 18.2656 13.7005C18.2656 13.7005 17.4781 12.9936 17.2174 12.4968C16.8893 11.8686 16.7618 11.2611 17.0918 11.0361Z" fill="#E2A610"/>
</svg>
