<svg width="24" height="24" viewBox="0 0 24 24" fill="none" xmlns="http://www.w3.org/2000/svg">
<path d="M20 20.5H4C2.9 20.5 2 19.6 2 18.5V8.05C2 7.4 2.3 6.8 2.85 6.4L12 0L21.15 6.4C21.7 6.75 22 7.4 22 8.05V18.5C22 19.6 21.1 20.5 20 20.5Z" fill="#78909C"/>
<path d="M7 0.5H17V16H7V0.5Z" fill="#AED581"/>
<path d="M6.5 0V16.5H17.5V0H6.5ZM16.5 15.5H7.5V1H16.5V15.5Z" fill="#558B2F"/>
<path d="M17 1.5C17 2.35 16.85 3 16 3C15.15 3 14.5 2.35 14.5 1.5C14.5 0.65 15.15 0.5 16 0.5C16.85 0.5 17 0.65 17 1.5ZM8 0.5C8.85 0.5 9.5 0.65 9.5 1.5C9.5 2.35 8.85 3 8 3C7.15 3 7 2.35 7 1.5C7 0.65 7.15 0.5 8 0.5Z" fill="#558B2F"/>
<path d="M11 4C11 4.26522 11.1054 4.51957 11.2929 4.70711C11.4804 4.89464 11.7348 5 12 5C12.2652 5 12.5196 4.89464 12.7071 4.70711C12.8946 4.51957 13 4.26522 13 4C13 3.73478 12.8946 3.48043 12.7071 3.29289C12.5196 3.10536 12.2652 3 12 3C11.7348 3 11.4804 3.10536 11.2929 3.29289C11.1054 3.48043 11 3.73478 11 4Z" fill="#558B2F"/>
<path d="M9 10C9 10.7956 9.31607 11.5587 9.87868 12.1213C10.4413 12.6839 11.2044 13 12 13C12.7956 13 13.5587 12.6839 14.1213 12.1213C14.6839 11.5587 15 10.7956 15 10C15 9.20435 14.6839 8.44129 14.1213 7.87868C13.5587 7.31607 12.7956 7 12 7C11.2044 7 10.4413 7.31607 9.87868 7.87868C9.31607 8.44129 9 9.20435 9 10Z" fill="#558B2F"/>
<path d="M20 20.5H4C2.9 20.5 2 19.6 2 18.5V8.5L12 15L22 8.5V18.5C22 19.6 21.1 20.5 20 20.5Z" fill="#CFD8DC"/>
</svg>
