<svg width="40" height="40" viewBox="0 0 40 40" fill="none" xmlns="http://www.w3.org/2000/svg">
<path d="M33.7173 2.52746C33.6611 2.44869 33.5818 2.38946 33.4903 2.35807C33.3988 2.32669 33.2998 2.32473 33.2071 2.35246C19.3946 6.45168 10.7813 12.3197 7.61569 19.7939C4.96725 26.0439 7.12116 31.1798 7.56804 32.1267C6.43366 35.1915 6.20319 37.1009 6.19772 37.1517C6.18522 37.2745 6.2217 37.3973 6.29923 37.4935C6.37676 37.5896 6.48907 37.6512 6.61178 37.665H6.661C6.77582 37.6643 6.88642 37.6216 6.97182 37.5448C7.05721 37.4681 7.11147 37.3627 7.12428 37.2486C7.12975 37.2001 7.34928 35.4204 8.40007 32.5478C9.1321 32.5962 9.85553 32.6329 10.554 32.6329C20.7665 32.6353 27.2657 27.5001 28.5282 18.2853C29.8438 8.68606 33.6821 3.12512 33.7204 3.06731C33.7756 2.98798 33.8049 2.89353 33.8043 2.79689C33.8038 2.70025 33.7734 2.60615 33.7173 2.52746ZM27.6063 18.1595C25.8446 30.9915 14.3165 31.9595 8.7446 31.6486C10.8126 26.4407 15.4352 18.2892 25.6305 10.19C25.7135 10.1089 25.7635 9.99999 25.7708 9.88424C25.7781 9.76849 25.7422 9.65414 25.6701 9.56329C25.598 9.47244 25.4948 9.41155 25.3804 9.39237C25.2661 9.3732 25.1486 9.39712 25.0508 9.45949C15.0063 17.4415 10.2719 25.5048 8.06569 30.8595C6.87027 27.3646 7.01561 23.5502 8.4735 20.1564C11.4383 13.1634 19.4532 7.59778 32.2899 3.60403C31.0938 5.67668 28.6321 10.6814 27.6063 18.1595Z" fill="#393939"/>
<path d="M27.6063 18.1595C25.8446 30.9915 14.3165 31.9595 8.7446 31.6486C10.8126 26.4407 15.4352 18.2892 25.6305 10.19C25.7135 10.1089 25.7635 9.99999 25.7708 9.88424C25.7781 9.76849 25.7422 9.65414 25.6701 9.56329C25.598 9.47244 25.4948 9.41155 25.3804 9.39237C25.2661 9.3732 25.1486 9.39712 25.0508 9.45949C15.0063 17.4415 10.2719 25.5048 8.06569 30.8595C6.87027 27.3646 7.01561 23.5502 8.4735 20.1564C11.4383 13.1634 19.4532 7.59778 32.2899 3.60403C31.0938 5.67668 28.6321 10.6814 27.6063 18.1595Z" fill="#D2E4CC"/>
</svg>
