<svg width="48" height="48" viewBox="0 0 48 48" fill="none" xmlns="http://www.w3.org/2000/svg">
<g filter="url(#filter0_d_170_3645)">
<rect x="4" width="40" height="40" rx="10" fill="#FEBE98"/>
</g>
<path d="M17.0033 29.3429C17.0033 27.8976 15.8612 26.6857 14.5017 26.6857C13.1422 26.6857 12 27.8976 12 29.3429C12 30.7881 13.1422 32 14.5017 32C15.8612 32 17.0033 30.7881 17.0033 29.3429Z" fill="white"/>
<path d="M17.0033 20.0001C17.0033 18.5548 15.8612 17.3429 14.5017 17.3429C13.1422 17.3429 12 18.5548 12 20.0001C12 21.4453 13.1422 22.6572 14.5017 22.6572C15.8612 22.6572 17.0033 21.4453 17.0033 20.0001Z" fill="white"/>
<path d="M17.0033 10.6571C17.0033 9.21185 15.8612 8 14.5017 8C13.1422 8 12 9.21185 12 10.6571C12 12.1023 13.1422 13.3143 14.5017 13.3143C15.8612 13.3143 17.0033 12.1023 17.0033 10.6571Z" fill="white"/>
<path d="M20.6109 8.64612C20.373 8.64612 20.1375 8.69814 19.9178 8.79921C19.698 8.90028 19.4984 9.04841 19.3302 9.23516C19.1621 9.42191 19.0287 9.64361 18.9376 9.8876C18.8466 10.1316 18.7998 10.3931 18.7998 10.6572C18.7998 11.1905 18.9906 11.702 19.3303 12.0792C19.6699 12.4563 20.1305 12.6682 20.6109 12.6682H34.1887C34.4265 12.6682 34.662 12.6162 34.8818 12.5151C35.1015 12.4141 35.3011 12.266 35.4693 12.0792C35.6375 11.8925 35.7709 11.6708 35.8619 11.4268C35.953 11.1828 35.9998 10.9213 35.9998 10.6572C35.9998 10.3931 35.953 10.1316 35.862 9.88758C35.7709 9.64358 35.6375 9.42188 35.4694 9.23513C35.3012 9.04838 35.1015 8.90024 34.8818 8.79918C34.662 8.69812 34.4265 8.64611 34.1887 8.64612H20.6109Z" fill="white"/>
<path d="M20.6109 17.989C20.1305 17.989 19.6699 18.2009 19.3303 18.578C18.9906 18.9552 18.7998 19.4667 18.7998 20C18.7998 20.5333 18.9906 21.0448 19.3303 21.422C19.6699 21.7991 20.1305 22.011 20.6109 22.011H34.1887C34.4265 22.011 34.662 21.959 34.8818 21.8579C35.1015 21.7569 35.3011 21.6088 35.4693 21.422C35.6375 21.2353 35.7709 21.0136 35.8619 20.7696C35.953 20.5256 35.9998 20.2641 35.9998 20C35.9998 19.7359 35.953 19.4744 35.8619 19.2304C35.7709 18.9864 35.6375 18.7647 35.4693 18.578C35.3011 18.3913 35.1015 18.2431 34.8818 18.1421C34.662 18.041 34.4265 17.989 34.1887 17.989H20.6109Z" fill="white"/>
<path d="M20.6109 27.3318C20.1305 27.3318 19.6699 27.5437 19.3303 27.9208C18.9906 28.2979 18.7998 28.8094 18.7998 29.3428C18.7998 29.8761 18.9906 30.3876 19.3303 30.7648C19.6699 31.1419 20.1305 31.3538 20.6109 31.3538H34.1887C34.4265 31.3538 34.662 31.3018 34.8818 31.2007C35.1015 31.0997 35.3011 30.9515 35.4693 30.7648C35.6375 30.578 35.7709 30.3564 35.8619 30.1124C35.953 29.8684 35.9998 29.6069 35.9998 29.3428C35.9998 29.0787 35.953 28.8172 35.8619 28.5732C35.7709 28.3292 35.6375 28.1075 35.4693 27.9208C35.3011 27.734 35.1015 27.5859 34.8818 27.4848C34.662 27.3838 34.4265 27.3318 34.1887 27.3318H20.6109Z" fill="white"/>
<defs>
<filter id="filter0_d_170_3645" x="0" y="0" width="48" height="48" filterUnits="userSpaceOnUse" color-interpolation-filters="sRGB">
<feFlood flood-opacity="0" result="BackgroundImageFix"/>
<feColorMatrix in="SourceAlpha" type="matrix" values="0 0 0 0 0 0 0 0 0 0 0 0 0 0 0 0 0 0 127 0" result="hardAlpha"/>
<feOffset dy="4"/>
<feGaussianBlur stdDeviation="2"/>
<feComposite in2="hardAlpha" operator="out"/>
<feColorMatrix type="matrix" values="0 0 0 0 0 0 0 0 0 0 0 0 0 0 0 0 0 0 0.25 0"/>
<feBlend mode="normal" in2="BackgroundImageFix" result="effect1_dropShadow_170_3645"/>
<feBlend mode="normal" in="SourceGraphic" in2="effect1_dropShadow_170_3645" result="shape"/>
</filter>
</defs>
</svg>
