<svg width="40" height="40" viewBox="0 0 40 40" fill="none" xmlns="http://www.w3.org/2000/svg">
<path d="M1.79596 34.4757V37.6904H19.1378H19.919H39.2924V34.1448C39.2924 32.8304 38.8406 31.5408 38.0203 30.5138C37.1999 29.4868 36.0422 28.761 34.7603 28.4705L31.6566 27.7671L31.6567 26.4764C32.348 26.1732 32.9844 25.742 33.5344 25.192C34.2156 24.5107 34.7324 23.6699 35.0285 22.7612C35.1014 22.5392 35.1609 22.3134 35.2078 22.0848C36.2304 21.954 37.0235 21.0789 37.0235 20.0214C37.0235 19.4684 36.8049 18.9446 36.4192 18.5564V13.7846C36.4192 10.9371 33.977 8.52215 31.041 8.41246V8.40723H31.029C30.664 7.97191 30.126 7.71668 29.5504 7.71582H29.5413C29.5344 7.71582 29.5275 7.71582 29.5205 7.71582C27.536 7.71582 25.6538 8.50309 24.219 9.93395C22.7485 11.4004 21.9387 13.3392 21.9387 15.3932V18.5812C21.5681 18.9668 21.3581 19.4817 21.3581 20.0214C21.3581 21.0788 22.151 21.9537 23.1733 22.0848C23.2202 22.3132 23.2796 22.5389 23.3524 22.7606C23.9152 24.4825 25.1818 25.8193 26.7733 26.4984V27.7671L23.6697 28.4706C22.6438 28.7032 21.6981 29.2149 20.9405 29.9361C20.952 29.8025 20.9592 29.6681 20.9592 29.5332C20.9592 28.0747 20.304 26.7163 19.1615 25.806C18.7907 25.511 18.5781 25.0731 18.5781 24.6047V16.6535C18.5781 14.5553 17.751 12.5793 16.2494 11.0895C14.7753 9.62699 12.8381 8.83246 10.7957 8.84668C8.75643 8.86277 6.83932 9.66574 5.3976 11.1075C3.93916 12.5653 3.13596 14.5041 3.13596 16.5668V24.5679C3.13596 25.0425 2.91908 25.4841 2.54103 25.7794C1.3758 26.6883 0.70752 28.0564 0.70752 29.5333C0.70752 30.7702 1.19447 31.9631 2.05135 32.8468C1.88572 33.361 1.79596 33.9085 1.79596 34.4757ZM19.1378 36.9092H2.57721V34.4757C2.57721 32.3746 4.0083 30.5829 6.05736 30.1186L9.41197 29.3582L9.41205 27.8579C9.86807 27.969 10.3438 28.0294 10.8335 28.0294C11.3403 28.0294 11.8323 27.9657 12.3028 27.8468L12.3027 29.3582L15.6574 30.1186C16.5014 30.3098 17.2401 30.7267 17.8175 31.2971C16.4715 31.9889 14.9744 32.3539 13.4574 32.3539H4.1683V33.1351H13.4574C15.1585 33.1351 16.8372 32.7123 18.3339 31.9097C18.8442 32.6392 19.1376 33.5256 19.1376 34.4757V36.9092H19.1378ZM5.61377 24.9831C5.89666 25.481 6.24846 25.9346 6.65658 26.3308V27.0965C6.65658 27.782 6.74221 28.4622 6.90893 29.1244L5.94971 29.3418C5.72697 28.6205 5.61377 27.8741 5.61377 27.1179V24.9831ZM7.67088 28.9517C7.51674 28.3461 7.43791 27.7238 7.43791 27.0965V26.9725C7.80775 27.2273 8.20775 27.4409 8.63096 27.6086V28.7341L7.67088 28.9517ZM15.9213 28.9862C15.9004 29.1113 15.8767 29.2366 15.8507 29.3617C15.8438 29.36 15.8371 29.3581 15.8302 29.3566L14.797 29.1224C14.9634 28.4609 15.0488 27.7814 15.0488 27.0966V26.2944C15.4408 25.9072 15.7789 25.466 16.0531 24.9837V27.3957C16.0531 27.9274 16.0087 28.4625 15.9213 28.9862ZM14.2676 27.0965C14.2676 27.7232 14.1888 28.3447 14.035 28.9496L13.084 28.7341V27.5897C13.5043 27.419 13.9007 27.2021 14.2675 26.9452V27.0965H14.2676ZM35.3183 21.2652C35.3276 21.1268 35.3332 20.988 35.3332 20.8486V20.6863C35.7259 20.5398 36.0463 20.2492 36.2347 19.883C36.2396 19.9287 36.2423 19.9748 36.2423 20.0213C36.2423 20.6075 35.8523 21.1036 35.3183 21.2652ZM35.638 13.7846V19.1291C35.638 19.3902 35.5204 19.6293 35.3333 19.7925V19.3573C35.3333 18.7025 35.1386 18.0703 34.7699 17.5283C34.6321 17.3267 34.5252 17.1039 34.4519 16.8664C34.3794 16.6314 34.3428 16.3871 34.3428 16.1401V15.33C34.3428 14.1061 33.3467 13.1104 32.1253 13.1104L31.2267 13.1039C31.394 12.6229 31.481 12.1129 31.481 11.6018V9.64871C31.481 9.5059 31.4654 9.36488 31.435 9.2277C33.7675 9.52106 35.638 11.4881 35.638 13.7846ZM22.7199 15.3931C22.7199 13.5482 23.4482 11.8058 24.7707 10.487C26.0581 9.20316 27.7442 8.49691 29.5217 8.49691C29.5278 8.49691 29.5342 8.49691 29.5403 8.49691H29.5499C29.9363 8.49746 30.2949 8.69066 30.5093 9.01363C30.6338 9.20137 30.6996 9.4209 30.6996 9.64848V11.6016C30.6996 12.2036 30.562 12.7793 30.2907 13.3125C29.6416 14.5857 28.3518 15.3766 26.9246 15.3766C25.8884 15.3766 24.9149 15.78 24.1836 16.5121C23.4514 17.2444 23.0481 18.2175 23.0481 19.2524V19.7245C22.8437 19.5317 22.72 19.2591 22.72 18.961V15.3931H22.7199ZM22.1395 20.0214C22.1395 19.9558 22.1462 19.8912 22.1559 19.8272C22.3492 20.1882 22.6604 20.4791 23.0481 20.6443V20.8486C23.0481 20.988 23.0538 21.1269 23.0631 21.2651C22.5293 21.1033 22.1395 20.6073 22.1395 20.0214ZM24.095 22.5172C23.9188 21.9811 23.8294 21.4196 23.8294 20.8486V19.2525C23.8294 18.4264 24.1513 17.6494 24.7362 17.0645C25.3201 16.48 26.0973 16.158 26.9246 16.158C28.5651 16.158 30.0551 15.2922 30.8699 13.8824L32.1224 13.8916C32.9158 13.8916 33.5614 14.5368 33.5614 15.3299V16.14C33.5614 16.4651 33.6098 16.7869 33.7053 17.0965C33.8017 17.409 33.9428 17.7025 34.1243 17.9684C34.4042 18.3796 34.5521 18.8598 34.5521 19.3572V20.8486C34.5521 21.4196 34.4626 21.9811 34.2861 22.5182C34.0277 23.3113 33.5767 24.045 32.9821 24.6396C31.9692 25.6525 30.6229 26.2103 29.1912 26.2103C26.8648 26.2103 24.8169 24.7264 24.095 22.5172ZM29.1911 26.9915C29.769 26.9915 30.3343 26.9106 30.8755 26.7571V27.8424L29.2152 28.7086L27.5546 27.8424L27.5547 26.7708C28.0783 26.9147 28.6275 26.9915 29.1911 26.9915ZM23.8426 29.2325L27.1105 28.4918L29.2151 29.5899L31.3196 28.4918L34.5876 29.2325C36.8978 29.7561 38.5112 31.7761 38.5112 34.1449V36.9092H35.1913V34.6324H34.4101V36.9092H23.9224V34.6324H23.1411V36.9092H19.919V34.4757V34.145C19.919 31.7761 21.5324 29.7561 23.8426 29.2325ZM1.48908 29.5332C1.48908 28.2988 2.04768 27.1552 3.02205 26.3951C3.59111 25.9507 3.91752 25.2846 3.91752 24.5679V16.5667C3.91752 14.7128 4.63939 12.9702 5.95033 11.66C7.24627 10.364 8.96939 9.64231 10.8022 9.62785C12.6346 9.61059 14.3744 10.3293 15.6995 11.644C17.0521 12.986 17.7971 14.765 17.7971 16.6535V24.6047C17.7971 25.3125 18.1173 25.9732 18.6752 26.4171C19.6304 27.1782 20.1781 28.3139 20.1781 29.5332C20.1781 30.4497 19.8734 31.3117 19.3116 32.0125C18.7365 30.9237 17.7854 30.0586 16.6002 29.5941C16.6344 29.4347 16.6653 29.2746 16.692 29.1148C16.7864 28.5487 16.8343 27.9704 16.8343 27.3957V20.9248C16.8343 18.5368 15.3054 16.4505 13.0299 15.7333L12.795 16.4784C14.7438 17.0926 16.0531 18.8795 16.0531 20.9248V22.0286C16.0531 24.9066 13.7117 27.2481 10.8336 27.2481C7.95557 27.2481 5.61408 24.9066 5.61408 22.0286H5.61377V21.0319C5.61377 19.3238 6.60721 17.7565 8.14861 17.0257L8.19229 17.0056C10.0338 16.1574 11.2238 14.2984 11.2238 12.2696V11.6013H10.4426V12.2696C10.4426 13.9777 9.45041 15.5443 7.91072 16.2748L7.86471 16.296C6.02275 17.145 4.83252 19.004 4.83252 21.0318V27.1178C4.83252 27.9485 4.9565 28.7683 5.19994 29.5607C3.96252 30.0211 2.97213 30.9155 2.38541 32.0464C1.81119 31.3413 1.48908 30.4519 1.48908 29.5332Z" fill="#393939"/>
<path d="M10.1533 24.2005L9.44824 24.5368C9.7059 25.0769 10.2591 25.4259 10.8576 25.4259C11.4556 25.4259 12.0087 25.077 12.2668 24.5371L11.5621 24.2002C11.433 24.4701 11.1565 24.6446 10.8576 24.6446C10.5585 24.6446 10.282 24.4703 10.1533 24.2005Z" fill="#393939"/>
<path d="M8.64665 20.502C8.43962 20.502 8.27173 20.6698 8.27173 20.8769V21.3269C8.27173 21.5339 8.43954 21.7018 8.64665 21.7018C8.8536 21.7018 9.02149 21.534 9.02149 21.3269V20.8769C9.02149 20.6698 8.8536 20.502 8.64665 20.502Z" fill="#393939"/>
<path d="M13.0202 21.7018C13.2271 21.7018 13.395 21.534 13.395 21.3269V20.8769C13.395 20.6698 13.2272 20.502 13.0202 20.502C12.8132 20.502 12.6453 20.6698 12.6453 20.8769V21.3269C12.6453 21.534 12.8132 21.7018 13.0202 21.7018Z" fill="#393939"/>
<path d="M30.6517 23.3868L29.947 23.0498C29.8129 23.3301 29.526 23.5111 29.2159 23.5111C28.9053 23.5111 28.6185 23.3302 28.4849 23.0501L27.7798 23.3866C28.0424 23.9368 28.606 24.2925 29.216 24.2925C29.8251 24.2924 30.3888 23.9369 30.6517 23.3868Z" fill="#393939"/>
<path d="M26.9486 19.2539C26.7363 19.2539 26.5642 19.426 26.5642 19.6383V20.0997C26.5642 20.312 26.7363 20.4841 26.9486 20.4841C27.1609 20.4841 27.333 20.312 27.333 20.0997V19.6383C27.333 19.426 27.1609 19.2539 26.9486 19.2539Z" fill="#393939"/>
<path d="M31.433 20.4841C31.6454 20.4841 31.8174 20.312 31.8174 20.0997V19.6383C31.8174 19.426 31.6454 19.2539 31.433 19.2539C31.2207 19.2539 31.0486 19.426 31.0486 19.6383V20.0997C31.0486 20.312 31.2207 20.4841 31.433 20.4841Z" fill="#393939"/>
<path d="M22.3168 2.32338C21.5674 2.2497 20.82 2.4958 20.2658 2.99822C20.0766 3.16986 19.9149 3.36642 19.7839 3.5808C19.653 3.36642 19.4912 3.16986 19.3019 2.99814C18.7479 2.4958 18.0003 2.24978 17.251 2.32338C16.0648 2.43978 15.0982 3.33908 14.9004 4.51025C14.8783 4.64072 14.8656 4.77408 14.8626 4.90666C14.8496 5.49353 15.0555 6.08377 15.4422 6.56861L15.9547 7.21111L19.0226 10.5453C19.2107 10.7738 19.4873 10.9045 19.784 10.9045C20.0807 10.9045 20.3573 10.7738 20.5454 10.5453L23.5952 7.23213L24.1257 6.56869C24.5125 6.08377 24.7183 5.49353 24.7052 4.90666C24.7023 4.77455 24.6896 4.64119 24.6676 4.51025C24.4696 3.33908 23.503 2.43986 22.3168 2.32338ZM23.5149 6.08158L23.0111 6.71322L19.9624 10.0251L19.9444 10.0461C19.8908 10.1133 19.8209 10.1234 19.784 10.1234C19.7471 10.1234 19.6773 10.1134 19.6236 10.0462L16.5568 6.7133L16.053 6.08166C15.7801 5.73955 15.6348 5.32845 15.6437 4.92431C15.6458 4.82947 15.6551 4.734 15.6708 4.64064C15.8101 3.81619 16.4913 3.18314 17.3274 3.10103C17.8655 3.04806 18.3805 3.21728 18.7773 3.57713C19.1689 3.93213 19.3934 4.43861 19.3934 4.96674V5.50408H20.1747V4.96674C20.1747 4.43861 20.3992 3.93213 20.7908 3.57713C21.1876 3.21736 21.7026 3.04814 22.2407 3.10103C23.0768 3.18306 23.758 3.81619 23.8973 4.64056C23.9131 4.73431 23.9222 4.8297 23.9244 4.92424C23.9332 5.32838 23.7878 5.73939 23.5149 6.08158Z" fill="#393939"/>
<path d="M23.5149 6.08158L23.0111 6.71322L19.9624 10.0251L19.9444 10.0461C19.8908 10.1133 19.8209 10.1234 19.784 10.1234C19.7471 10.1234 19.6773 10.1134 19.6236 10.0462L16.5568 6.7133L16.053 6.08166C15.7801 5.73955 15.6348 5.32845 15.6437 4.92431C15.6458 4.82947 15.6551 4.734 15.6708 4.64064C15.8101 3.81619 16.4913 3.18314 17.3274 3.10103C17.8655 3.04806 18.3805 3.21728 18.7773 3.57713C19.1689 3.93213 19.3934 4.43861 19.3934 4.96674V5.50408H20.1747V4.96674C20.1747 4.43861 20.3992 3.93213 20.7908 3.57713C21.1876 3.21736 21.7026 3.04814 22.2407 3.10103C23.0768 3.18306 23.758 3.81619 23.8973 4.64056C23.9131 4.73431 23.9222 4.8297 23.9244 4.92424C23.9332 5.32838 23.7878 5.73939 23.5149 6.08158Z" fill="#FEBE98"/>
</svg>
