<svg width="40" height="40" viewBox="0 0 40 40" fill="none" xmlns="http://www.w3.org/2000/svg">
<g clip-path="url(#clip0_204_3855)">
<path d="M19.587 5.11299L13.7533 0.738558C13.4939 0.587147 13.1734 0.587147 12.9135 0.738558L5.41338 5.11299C5.15775 5.26315 5.00024 5.53652 5.00024 5.83317V39.1676C5.00024 39.6278 5.37307 40.0001 5.83332 40.0001H19.1671C19.6273 40.0001 20.0002 39.6277 20.0002 39.1676V5.83317C20.0002 5.5366 19.8427 5.26315 19.587 5.11299Z" fill="#FEBE98"/>
<path d="M15.8335 28.334H9.16727C8.70702 28.334 8.3335 28.7075 8.3335 29.1678V40.0003H16.6673V29.1678C16.6673 28.7075 16.2937 28.334 15.8335 28.334Z" fill="white"/>
<path d="M11.6673 34.1677C11.6673 34.6279 11.2938 35.0002 10.8336 35.0002C10.3734 35.0002 10.0005 34.6279 10.0005 34.1677C10.0005 33.7075 10.3734 33.334 10.8336 33.334C11.2938 33.334 11.6673 33.7074 11.6673 34.1677Z" fill="#393939"/>
<path d="M20.3391 3.40513L12.8391 0.071428C12.6237 -0.0238093 12.3777 -0.0238093 12.1623 0.071428L4.66163 3.40513C4.36068 3.53818 4.16724 3.83725 4.16724 4.16687V7.49939C4.16724 7.78136 4.30943 8.04504 4.54631 8.19887C4.78311 8.3527 5.08101 8.37591 5.33907 8.26114L12.5004 5.07877L19.6616 8.26114C19.7703 8.30997 19.8856 8.33317 20.0004 8.33317C20.1591 8.33317 20.3172 8.28801 20.4545 8.19887C20.6913 8.04511 20.8335 7.78143 20.8335 7.49939V4.16687C20.8335 3.83733 20.64 3.53818 20.3391 3.40513Z" fill="#393939"/>
<path d="M15.8334 10.833H9.16675V19.1669H15.8334V10.833Z" fill="#5D9CEC"/>
<path d="M15.8335 19.9991H9.16727C8.70702 19.9991 8.3335 19.6267 8.3335 19.1666V10.8327C8.3335 10.3726 8.70702 9.99902 9.16727 9.99902H15.8335C16.2937 9.99902 16.6673 10.3726 16.6673 10.8327V19.1665C16.6673 19.6267 16.2937 19.9991 15.8335 19.9991ZM10.0004 18.3328H15.0004V11.6665H10.0004V18.3328Z" fill="#E6E9ED"/>
<path d="M16.6671 19.9992H8.33332C7.87315 19.9992 7.50024 19.6269 7.50024 19.1667C7.50024 18.7065 7.87315 18.333 8.33332 18.333H16.6671C17.1273 18.333 17.5002 18.7065 17.5002 19.1667C17.5002 19.6269 17.1273 19.9992 16.6671 19.9992Z" fill="#F5F7FA"/>
<path d="M19.9999 23.334H5.00024V25.0003H19.9999V23.334Z" fill="#393939"/>
<path d="M34.5877 5.11299L28.7526 0.738558C28.4939 0.587147 28.174 0.587147 27.9128 0.738558L20.4135 5.11299C20.1577 5.26315 20.0002 5.53652 20.0002 5.83317V39.1676C20.0002 39.6278 20.3731 40.0001 20.8334 40.0001H34.1677C34.6267 40.0001 35.0002 39.6277 35.0002 39.1676V5.83317C35.0002 5.5366 34.8427 5.26315 34.5877 5.11299Z" fill="#D2E4CC"/>
<path d="M30.8329 28.334H24.1678C23.7064 28.334 23.3328 28.7075 23.3328 29.1678V40.0003H31.6678V29.1678C31.6679 28.7075 31.2943 28.334 30.8329 28.334Z" fill="white"/>
<path d="M26.668 34.1677C26.668 34.6279 26.2945 35.0002 25.833 35.0002C25.374 35.0002 25.0005 34.6279 25.0005 34.1677C25.0005 33.7075 25.374 33.334 25.833 33.334C26.2944 33.334 26.668 33.7074 26.668 34.1677Z" fill="#393939"/>
<path d="M35.3398 3.40513L27.8397 0.071428C27.6237 -0.0238093 27.3784 -0.0238093 27.1623 0.071428L19.6616 3.40513C19.3607 3.53818 19.1672 3.83725 19.1672 4.16687V7.49939C19.1672 7.78136 19.3094 8.04504 19.5463 8.19887C19.7831 8.3527 20.081 8.37591 20.3391 8.26114L27.5004 5.07877L34.661 8.26114C34.7708 8.30997 34.8856 8.33317 35.0004 8.33317C35.1591 8.33317 35.3177 8.28801 35.4545 8.19887C35.6913 8.04511 35.8329 7.78143 35.8329 7.49939V4.16687C35.8329 3.83733 35.6401 3.53818 35.3398 3.40513Z" fill="#393939"/>
<path d="M30.8333 10.833H24.1682V19.1669H30.8333V10.833Z" fill="#5D9CEC"/>
<path d="M30.8329 19.9991H24.1678C23.7064 19.9991 23.3328 19.6267 23.3328 19.1666V10.8327C23.3328 10.3726 23.7063 9.99902 24.1678 9.99902H30.8329C31.2943 9.99902 31.6679 10.3726 31.6679 10.8327V19.1665C31.6679 19.6267 31.2943 19.9991 30.8329 19.9991ZM25.0004 18.3328H30.0004V11.6665H25.0004V18.3328Z" fill="#E6E9ED"/>
<path d="M31.6678 19.9992H23.3328C22.8738 19.9992 22.5002 19.6269 22.5002 19.1667C22.5002 18.7065 22.8738 18.333 23.3328 18.333H31.6678C32.1268 18.333 32.5003 18.7065 32.5003 19.1667C32.5003 19.6269 32.1268 19.9992 31.6678 19.9992Z" fill="#F5F7FA"/>
<path d="M34.9997 23.334H20V25.0003H34.9997V23.334Z" fill="#393939"/>
</g>
<defs>
<clipPath id="clip0_204_3855">
<rect width="40" height="40" fill="white"/>
</clipPath>
</defs>
</svg>
