<svg width="20" height="30" viewBox="0 0 20 30" fill="none" xmlns="http://www.w3.org/2000/svg">
<path d="M9.64558 29.0855C9.64555 29.0855 9.64552 29.0856 9.64549 29.0856C9.64544 29.0855 9.64538 29.0854 9.64533 29.0854C9.38285 28.6721 9.0076 28.0758 8.55719 27.3449C7.65611 25.8828 6.45536 23.8837 5.25525 21.734C4.05424 19.5828 2.85842 17.2888 1.96427 15.2351C1.05915 13.1563 0.5 11.4034 0.5 10.3013C0.5 6.83731 1.67482 4.40435 3.37539 2.83301C5.08425 1.25402 7.36712 0.505523 9.64286 0.500001C11.9186 0.505523 14.2015 1.25402 15.9103 2.83301C17.6109 4.40435 18.7857 6.83731 18.7857 10.3013C18.7857 11.4035 18.2269 13.1564 17.3223 15.2352C16.4286 17.2889 15.2335 19.5829 14.0332 21.7341C12.8337 23.8838 11.6337 25.8829 10.7331 27.345C10.2829 28.0759 9.90791 28.6722 9.64558 29.0855Z" fill="white" stroke="#FEBE98"/>
</svg>
