<svg width="24" height="24" viewBox="0 0 24 24" fill="none" xmlns="http://www.w3.org/2000/svg">
<g clip-path="url(#clip0_263_24061)">
<path d="M1.875 7.04785C1.04658 7.04785 0.375 6.37627 0.375 5.54785C0.375 4.72285 1.05 4.04785 1.875 4.04785H7.875H21.375C22.2 4.04785 22.875 4.72285 22.875 5.54785V8.54785H1.82812L1.875 7.04785Z" fill="#9B5A50"/>
<path d="M22.875 17.5495V21.2979C22.875 22.1229 22.2 22.7979 21.375 22.7979H1.875C1.05 22.7979 0.375 22.1229 0.375 21.2979V5.54785L1.875 7.04785H21.375C22.2 7.04785 22.875 7.72285 22.875 8.54785V12.2981" fill="#AA6455"/>
<path d="M7.04519 8.4541C7.04519 8.24682 6.87747 8.0791 6.67019 8.0791H6.2981C6.09081 8.0791 5.9231 8.24682 5.9231 8.4541C5.9231 8.66138 6.09081 8.8291 6.2981 8.8291H6.67019C6.87747 8.8291 7.04519 8.66138 7.04519 8.4541Z" fill="#9B5A50"/>
<path d="M8.90636 8.4541C8.90636 8.24682 8.73864 8.0791 8.53136 8.0791H8.15894C7.95165 8.0791 7.78394 8.24682 7.78394 8.4541C7.78394 8.66138 7.95165 8.8291 8.15894 8.8291H8.53136C8.73864 8.8291 8.90636 8.66138 8.90636 8.4541Z" fill="#9B5A50"/>
<path d="M7.08946 20.8291H6.71704C6.50976 20.8291 6.34204 20.9968 6.34204 21.2041C6.34204 21.4114 6.50976 21.5791 6.71704 21.5791H7.08946C7.29674 21.5791 7.46446 21.4114 7.46446 21.2041C7.46446 20.9968 7.29674 20.8291 7.08946 20.8291Z" fill="#9B5A50"/>
<path d="M8.95022 20.8291H8.57812C8.37084 20.8291 8.20312 20.9968 8.20312 21.2041C8.20312 21.4114 8.37084 21.5791 8.57812 21.5791H8.95022C9.1575 21.5791 9.32522 21.4114 9.32522 21.2041C9.32522 20.9968 9.15745 20.8291 8.95022 20.8291Z" fill="#9B5A50"/>
<path d="M12.628 8.4541C12.628 8.24682 12.4603 8.0791 12.253 8.0791H11.8806C11.6733 8.0791 11.5056 8.24682 11.5056 8.4541C11.5056 8.66138 11.6733 8.8291 11.8806 8.8291H12.253C12.4603 8.8291 12.628 8.66138 12.628 8.4541Z" fill="#9B5A50"/>
<path d="M10.8114 20.8291H10.439C10.2317 20.8291 10.064 20.9968 10.064 21.2041C10.064 21.4114 10.2317 21.5791 10.439 21.5791H10.8114C11.0187 21.5791 11.1864 21.4114 11.1864 21.2041C11.1864 20.9968 11.0187 20.8291 10.8114 20.8291Z" fill="#9B5A50"/>
<path d="M3.36778 20.8291H2.99536C2.78808 20.8291 2.62036 20.9968 2.62036 21.2041C2.62036 21.4114 2.78808 21.5791 2.99536 21.5791H3.36778C3.57506 21.5791 3.74278 21.4114 3.74278 21.2041C3.74278 20.9968 3.57506 20.8291 3.36778 20.8291Z" fill="#9B5A50"/>
<path d="M3.32327 8.4541C3.32327 8.24682 3.15555 8.0791 2.94827 8.0791H2.57617C2.36889 8.0791 2.20117 8.24682 2.20117 8.4541C2.20117 8.66138 2.36889 8.8291 2.57617 8.8291H2.94827C3.15555 8.8291 3.32327 8.66138 3.32327 8.4541Z" fill="#9B5A50"/>
<path d="M1.58306 20.8077C1.49189 20.7894 1.40287 20.7597 1.31831 20.7194C1.12936 20.6297 0.907077 20.7099 0.818437 20.8963C0.729093 21.0834 0.808546 21.3072 0.995296 21.3962C1.13555 21.4632 1.28316 21.5123 1.43437 21.543C1.45964 21.5481 1.48453 21.5503 1.50909 21.5503C1.6838 21.5503 1.8405 21.4277 1.87641 21.2497C1.91742 21.0464 1.78598 20.8487 1.58306 20.8077Z" fill="#9B5A50"/>
<path d="M0.679688 8.47205C0.777562 8.52094 0.876141 8.56913 0.977766 8.60808C1.02173 8.62491 1.06673 8.63259 1.11145 8.63259C1.26234 8.63259 1.4048 8.54067 1.46194 8.39128C1.53553 8.19792 1.43887 7.98113 1.24514 7.90716C1.1437 7.86872 1.04484 7.8233 0.949594 7.77277C0.863625 7.72669 0.767719 7.7205 0.679688 7.74338V8.47205Z" fill="#9B5A50"/>
<path d="M12.6719 20.8291H12.2998C12.0925 20.8291 11.9248 20.9968 11.9248 21.2041C11.9248 21.4114 12.0925 21.5791 12.2998 21.5791H12.6719C12.8792 21.5791 13.0469 21.4114 13.0469 21.2041C13.0469 20.9968 12.8792 20.8291 12.6719 20.8291Z" fill="#9B5A50"/>
<path d="M5.18443 8.4541C5.18443 8.24682 5.01671 8.0791 4.80943 8.0791H4.43701C4.22973 8.0791 4.06201 8.24682 4.06201 8.4541C4.06201 8.66138 4.22973 8.8291 4.43701 8.8291H4.80943C5.01667 8.8291 5.18443 8.66138 5.18443 8.4541Z" fill="#9B5A50"/>
<path d="M5.2283 20.8291H4.8562C4.64892 20.8291 4.4812 20.9968 4.4812 21.2041C4.4812 21.4114 4.64892 21.5791 4.8562 21.5791H5.2283C5.43558 21.5791 5.6033 21.4114 5.6033 21.2041C5.6033 20.9968 5.43558 20.8291 5.2283 20.8291Z" fill="#9B5A50"/>
<path d="M10.7669 8.4541C10.7669 8.24682 10.5992 8.0791 10.3919 8.0791H10.0198C9.81249 8.0791 9.64478 8.24682 9.64478 8.4541C9.64478 8.66138 9.81249 8.8291 10.0198 8.8291H10.3919C10.5992 8.8291 10.7669 8.66138 10.7669 8.4541Z" fill="#9B5A50"/>
<path d="M20.1797 16.8496C19.9724 16.8496 19.8047 17.0173 19.8047 17.2246V17.5967C19.8047 17.804 19.9724 17.9717 20.1797 17.9717C20.387 17.9717 20.5547 17.804 20.5547 17.5967V17.2246C20.5547 17.0173 20.387 16.8496 20.1797 16.8496Z" fill="#9B5A50"/>
<path d="M20.1797 14.9883C19.9724 14.9883 19.8047 15.156 19.8047 15.3633V15.7357C19.8047 15.943 19.9724 16.1107 20.1797 16.1107C20.387 16.1107 20.5547 15.943 20.5547 15.7357V15.3633C20.5547 15.156 20.387 14.9883 20.1797 14.9883Z" fill="#9B5A50"/>
<path d="M20.1797 18.71C19.9724 18.71 19.8047 18.8777 19.8047 19.085V19.4574C19.8047 19.6647 19.9724 19.8324 20.1797 19.8324C20.387 19.8324 20.5547 19.6647 20.5547 19.4574V19.085C20.5547 18.8777 20.387 18.71 20.1797 18.71Z" fill="#9B5A50"/>
<path d="M14.4888 8.4541C14.4888 8.24682 14.3211 8.0791 14.1138 8.0791H13.7417C13.5344 8.0791 13.3667 8.24682 13.3667 8.4541C13.3667 8.66138 13.5344 8.8291 13.7417 8.8291H14.1138C14.3211 8.8291 14.4888 8.66138 14.4888 8.4541Z" fill="#9B5A50"/>
<path d="M20.1797 13.1279C19.9724 13.1279 19.8047 13.2956 19.8047 13.5029V13.875C19.8047 14.0823 19.9724 14.25 20.1797 14.25C20.387 14.25 20.5547 14.0823 20.5547 13.875V13.5029C20.5547 13.2956 20.387 13.1279 20.1797 13.1279Z" fill="#9B5A50"/>
<path d="M19.7275 20.682C19.689 20.7318 19.6388 20.7714 19.5821 20.7963C19.3931 20.8805 19.3078 21.1021 19.3916 21.2914C19.4539 21.431 19.5908 21.5141 19.7347 21.5141C19.7853 21.5141 19.8373 21.5038 19.8867 21.4818C20.0566 21.4064 20.2068 21.2885 20.3207 21.1405C20.4474 20.9765 20.4174 20.741 20.2533 20.6147C20.0889 20.4872 19.8531 20.5187 19.7275 20.682Z" fill="#9B5A50"/>
<path d="M20.1797 11.2666C19.9724 11.2666 19.8047 11.4343 19.8047 11.6416V12.014C19.8047 12.2213 19.9724 12.389 20.1797 12.389C20.387 12.389 20.5547 12.2213 20.5547 12.014V11.6416C20.5547 11.4344 20.387 11.2666 20.1797 11.2666Z" fill="#9B5A50"/>
<path d="M20.1797 9.40625C19.9724 9.40625 19.8047 9.57397 19.8047 9.78125V10.1533C19.8047 10.3606 19.9724 10.5283 20.1797 10.5283C20.387 10.5283 20.5547 10.3606 20.5547 10.1533V9.78125C20.5547 9.57397 20.387 9.40625 20.1797 9.40625Z" fill="#9B5A50"/>
<path d="M16.3938 20.8291H16.0217C15.8144 20.8291 15.6467 20.9968 15.6467 21.2041C15.6467 21.4114 15.8144 21.5791 16.0217 21.5791H16.3938C16.6011 21.5791 16.7688 21.4114 16.7688 21.2041C16.7688 20.9968 16.6011 20.8291 16.3938 20.8291Z" fill="#9B5A50"/>
<path d="M16.35 8.4541C16.35 8.24682 16.1822 8.0791 15.975 8.0791H15.6025C15.3953 8.0791 15.2275 8.24682 15.2275 8.4541C15.2275 8.66138 15.3953 8.8291 15.6025 8.8291H15.975C16.1822 8.8291 16.35 8.66138 16.35 8.4541Z" fill="#9B5A50"/>
<path d="M14.5331 20.8291H14.1606C13.9534 20.8291 13.7856 20.9968 13.7856 21.2041C13.7856 21.4114 13.9534 21.5791 14.1606 21.5791H14.5331C14.7403 21.5791 14.9081 21.4114 14.9081 21.2041C14.9081 20.9968 14.7403 20.8291 14.5331 20.8291Z" fill="#9B5A50"/>
<path d="M18.255 20.8291H17.8826C17.6753 20.8291 17.5076 20.9968 17.5076 21.2041C17.5076 21.4114 17.6753 21.5791 17.8826 21.5791H18.255C18.4623 21.5791 18.63 21.4114 18.63 21.2041C18.63 20.9968 18.4622 20.8291 18.255 20.8291Z" fill="#9B5A50"/>
<path d="M19.5608 8.85254C19.6036 8.86829 19.6476 8.8756 19.6908 8.8756C19.8431 8.8756 19.9867 8.78185 20.0427 8.63059C20.1145 8.43615 20.0149 8.22043 19.8208 8.14866C19.6956 8.10254 19.5638 8.0791 19.4297 8.0791H19.3242C19.1169 8.0791 18.9492 8.24682 18.9492 8.4541C18.9492 8.66138 19.1169 8.8291 19.3242 8.8291H19.4297C19.4747 8.8291 19.519 8.83679 19.5608 8.85254Z" fill="#9B5A50"/>
<path d="M18.2105 8.4541C18.2105 8.24682 18.0428 8.0791 17.8355 8.0791H17.4634C17.2561 8.0791 17.0884 8.24682 17.0884 8.4541C17.0884 8.66138 17.2561 8.8291 17.4634 8.8291H17.8355C18.0428 8.8291 18.2105 8.66138 18.2105 8.4541Z" fill="#9B5A50"/>
<path d="M17.0157 17.5479H23.5312C23.583 17.5479 23.625 17.5059 23.625 17.4541V12.3916C23.625 12.3399 23.583 12.2979 23.5312 12.2979H17.0157C16.938 12.2979 16.875 12.3609 16.875 12.4386V17.4071C16.875 17.4849 16.938 17.5479 17.0157 17.5479Z" fill="#915046"/>
<path d="M19.5 15.6729C19.9142 15.6729 20.25 15.3371 20.25 14.9229C20.25 14.5086 19.9142 14.1729 19.5 14.1729C19.0858 14.1729 18.75 14.5086 18.75 14.9229C18.75 15.3371 19.0858 15.6729 19.5 15.6729Z" fill="#FFD782"/>
<path d="M1.875 5.54718L19.7354 1.22333C20.1373 1.12607 20.5419 1.37296 20.6392 1.77486L21.5553 5.55899L1.875 5.54718Z" fill="#D2E4CC"/>
<path d="M23.5312 11.9222H23.25V8.5472V5.5472C23.25 4.55036 22.4679 3.733 21.4852 3.67567L21.0037 1.68653C20.8579 1.08433 20.2493 0.712984 19.6472 0.858859L7.97203 3.68533C7.941 3.67703 7.90861 3.6722 7.875 3.6722H1.875C0.841125 3.6722 0 4.51333 0 5.5472V21.2972C0 22.3311 0.841125 23.1722 1.875 23.1722H21.375C22.4089 23.1722 23.25 22.3311 23.25 21.2972V17.9222H23.5312C23.7897 17.9222 24 17.7119 24 17.4535V12.391C24 12.1325 23.7897 11.9222 23.5312 11.9222ZM22.5 5.5472V5.54805C22.3119 5.40648 22.0965 5.29984 21.8632 5.23684L21.6759 4.46341C22.1505 4.59536 22.5 5.03111 22.5 5.5472ZM1.875 4.4222H4.92825L1.80023 5.17947C1.79827 5.17984 1.79639 5.18045 1.79447 5.18083L1.78673 5.1827C1.78575 5.18298 1.78477 5.18336 1.78378 5.18359C1.773 5.18631 1.76241 5.18941 1.75205 5.19297C1.75017 5.19362 1.74839 5.19433 1.74656 5.19498C1.73691 5.1985 1.72748 5.20234 1.71825 5.20661C1.71562 5.20778 1.71309 5.20909 1.71052 5.21031C1.70236 5.2143 1.69434 5.21852 1.68656 5.22306C1.68333 5.22494 1.68014 5.22691 1.67695 5.22887C1.67006 5.23323 1.66327 5.23769 1.65666 5.24242C1.65314 5.24495 1.64972 5.24753 1.6463 5.25016C1.6402 5.25489 1.6343 5.25967 1.62853 5.26473C1.62516 5.26769 1.62183 5.27069 1.61859 5.27373C1.61302 5.27898 1.60762 5.28433 1.60237 5.28991C1.59942 5.293 1.59656 5.29619 1.59375 5.29942C1.58855 5.30533 1.58353 5.31137 1.57866 5.31766C1.57622 5.32075 1.57387 5.32389 1.57162 5.32708C1.56675 5.33373 1.56216 5.34053 1.5578 5.34752C1.55583 5.35061 1.55391 5.35375 1.55208 5.35689C1.54781 5.36406 1.54383 5.37142 1.54008 5.37887C1.53839 5.3822 1.5368 5.38562 1.5352 5.389C1.53178 5.39631 1.52859 5.40377 1.52564 5.41136C1.52409 5.41539 1.52264 5.41942 1.52123 5.42345C1.5188 5.43048 1.5165 5.43756 1.51444 5.44478C1.51298 5.44989 1.51172 5.45505 1.5105 5.4602C1.509 5.46648 1.50759 5.47277 1.50647 5.47909C1.50525 5.48561 1.50431 5.49212 1.50347 5.49869C1.50277 5.50398 1.50211 5.50933 1.50164 5.51472C1.50098 5.52236 1.50066 5.53 1.50047 5.53769C1.50042 5.54078 1.5 5.54383 1.5 5.54697C1.5 5.54875 1.50023 5.55044 1.50028 5.55222C1.50038 5.55963 1.50084 5.56712 1.50141 5.57467C1.50178 5.58016 1.5022 5.58564 1.50281 5.59108C1.50356 5.59731 1.50464 5.60359 1.50567 5.60983C1.50675 5.61644 1.50792 5.62295 1.50938 5.62942C1.50984 5.63144 1.51003 5.63345 1.5105 5.63547C1.51139 5.63903 1.51266 5.64241 1.51359 5.64597C1.51538 5.65258 1.51725 5.65909 1.51941 5.66556C1.52138 5.67147 1.52353 5.67723 1.52578 5.683C1.52789 5.68839 1.53 5.69378 1.53239 5.69908C1.53534 5.70573 1.53848 5.7122 1.54181 5.71862C1.54387 5.72266 1.54594 5.72664 1.54814 5.73053C1.55222 5.7378 1.55653 5.74487 1.56103 5.75177C1.56291 5.75462 1.56478 5.75748 1.5667 5.7603C1.57186 5.76775 1.5773 5.77497 1.58297 5.782C1.58466 5.78416 1.58639 5.78627 1.58812 5.78837C1.59422 5.79559 1.60059 5.80258 1.60716 5.80928C1.60889 5.81106 1.61062 5.81284 1.61241 5.81458C1.6192 5.82128 1.62619 5.82756 1.63345 5.8337C1.63542 5.83534 1.63739 5.83698 1.63941 5.83858C1.64667 5.84448 1.65412 5.85006 1.66186 5.85536C1.66411 5.85691 1.66641 5.85845 1.6687 5.86C1.67644 5.86506 1.68436 5.86989 1.69242 5.87444C1.69486 5.8758 1.6973 5.87716 1.69973 5.87842C1.70808 5.88287 1.71656 5.88695 1.72528 5.89075C1.72758 5.89173 1.72987 5.89277 1.73217 5.8937C1.74141 5.8975 1.75078 5.90092 1.76034 5.90402C1.76217 5.90462 1.764 5.90519 1.76583 5.90575C1.77628 5.90894 1.78683 5.91166 1.79756 5.91391C1.79859 5.91414 1.79958 5.91437 1.80061 5.91461C1.81233 5.917 1.82419 5.91878 1.83619 5.92C1.83642 5.92005 1.83666 5.92005 1.83689 5.92009C1.84941 5.92136 1.86197 5.92202 1.87462 5.92197C1.87472 5.92197 1.87486 5.92202 1.87495 5.92202H1.87589C1.88058 5.92197 1.88517 5.9222 1.88986 5.92202H19.5C19.7071 5.92202 19.875 5.75411 19.875 5.54702C19.875 5.33992 19.7071 5.17202 19.5 5.17202H5.01867L19.8236 1.58786C20.0236 1.53916 20.2262 1.66281 20.2747 1.86311L21.0758 5.17202H21.0002C20.7931 5.17202 20.6252 5.33992 20.6252 5.54702C20.6252 5.75411 20.7931 5.92202 21.0002 5.92202H21.375C21.4128 5.92202 21.45 5.92398 21.4868 5.92759C21.5014 5.93031 21.5161 5.93214 21.531 5.93308C22.0778 6.0093 22.5 6.47964 22.5 7.04702V7.04828C22.1864 6.81231 21.7968 6.67225 21.375 6.67225H1.875C1.25466 6.67225 0.75 6.16755 0.75 5.54725C0.75 4.92695 1.2547 4.4222 1.875 4.4222ZM22.5 21.2972C22.5 21.9175 21.9953 22.4222 21.375 22.4222H1.875C1.25466 22.4222 0.75 21.9175 0.75 21.2972V7.04617C1.06359 7.28209 1.45322 7.42216 1.875 7.42216H21.375C21.9953 7.42216 22.5 7.92686 22.5 8.54716V11.9222H17.0157C16.7314 11.9222 16.5 12.1535 16.5 12.4379V17.4064C16.5 17.6908 16.7314 17.9222 17.0157 17.9222H22.5V21.2972ZM23.25 17.1722H17.25V12.6722H22.8696C22.8714 12.6722 22.8732 12.6725 22.875 12.6725C22.8768 12.6725 22.8786 12.6722 22.8804 12.6722H23.25V17.1722Z" fill="#2D2B29"/>
<path d="M20.25 14.5469C20.0429 14.5469 19.875 14.7148 19.875 14.9219C19.875 15.1286 19.7068 15.2969 19.5 15.2969C19.2932 15.2969 19.125 15.1286 19.125 14.9219C19.125 14.7151 19.2932 14.5469 19.5 14.5469C19.7071 14.5469 19.875 14.379 19.875 14.1719C19.875 13.9648 19.7071 13.7969 19.5 13.7969C18.8797 13.7969 18.375 14.3016 18.375 14.9219C18.375 15.5422 18.8797 16.0469 19.5 16.0469C20.1203 16.0469 20.625 15.5422 20.625 14.9219C20.625 14.7148 20.4571 14.5469 20.25 14.5469Z" fill="#2D2B29"/>
</g>
<defs>
<clipPath id="clip0_263_24061">
<rect width="24" height="24" fill="white"/>
</clipPath>
</defs>
</svg>
