<svg width="27" height="29" viewBox="0 0 27 29" fill="none" xmlns="http://www.w3.org/2000/svg">
<mask id="path-1-outside-1_154_2718" maskUnits="userSpaceOnUse" x="0" y="0" width="27" height="29" fill="black">
<rect fill="white" width="27" height="29"/>
<path d="M2.4804 14.7163H3.59133C3.89283 13.5797 4.42051 12.5345 5.1347 11.6591C5.8489 10.7838 6.73102 10.1011 7.71476 9.66232C7.06021 8.72111 6.70767 7.5606 6.71393 6.36773C6.71393 4.94412 7.21901 3.57881 8.11806 2.57217C9.01711 1.56553 10.2365 1 11.5079 1C12.7794 1 13.9987 1.56553 14.8978 2.57217C15.7968 3.57881 16.3019 4.94412 16.3019 6.36773C16.2991 7.62457 15.8984 8.83958 15.171 9.7968C15.7515 9.97609 16.6122 10.2787 17.7031 10.7269C18.5717 9.39662 19.5949 8.20197 20.7456 7.17457C20.8199 7.10883 20.9093 7.06804 21.0034 7.05692C21.0976 7.0458 21.1926 7.06481 21.2775 7.11174C21.3624 7.15868 21.4337 7.23161 21.483 7.32208C21.5323 7.41254 21.5578 7.51682 21.5563 7.62281V13.3267C22.4404 14.1234 23.2578 15.0086 23.9983 15.9714H25.4996C25.6323 15.9714 25.7596 16.0304 25.8534 16.1355C25.9473 16.2406 26 16.3831 26 16.5317V20.7115C26.0003 20.8209 25.9721 20.928 25.9187 21.0196C25.8654 21.1112 25.7893 21.1833 25.6997 21.227L18.744 24.5889V25.956C18.7413 26.3979 18.5834 26.8209 18.3043 27.1334C18.0252 27.4459 17.6474 27.6228 17.2527 27.6257H15.7214C15.3267 27.6228 14.949 27.4459 14.6699 27.1334C14.3908 26.8209 14.2328 26.3979 14.2302 25.956V24.757H10.377V25.9336C10.3744 26.3755 10.2164 26.7985 9.93731 27.111C9.65821 27.4235 9.28043 27.6004 8.88574 27.6033H7.35446C6.95977 27.6004 6.58199 27.4235 6.30289 27.111C6.0238 26.7985 5.86584 26.3755 5.86322 25.9336V22.9416C4.92776 22.1045 4.20645 21.0055 3.77234 19.7559C3.33823 18.5063 3.20673 17.1505 3.39116 15.8257H2.50042C2.3677 15.8257 2.24042 15.7667 2.14657 15.6616C2.05272 15.5565 2 15.414 2 15.2654C2 15.1168 2.05272 14.9743 2.14657 14.8692C2.24042 14.7641 2.3677 14.7051 2.50042 14.7051L2.4804 14.7163ZM11.4679 2.12061C10.7177 2.12061 9.9843 2.3697 9.36052 2.83638C8.73674 3.30306 8.25056 3.96637 7.96346 4.74243C7.67637 5.51849 7.60125 6.37244 7.74761 7.1963C7.89397 8.02016 8.25524 8.77692 8.78572 9.37089C9.3162 9.96486 9.99208 10.3694 10.7279 10.5332C11.4637 10.6971 12.2264 10.613 12.9195 10.2915C13.6126 9.9701 14.205 9.42573 14.6218 8.7273C15.0386 8.02886 15.2611 7.20773 15.2611 6.36773C15.2611 5.24132 14.8614 4.16105 14.1501 3.36456C13.4387 2.56807 12.4739 2.12061 11.4679 2.12061ZM6.64387 22.2916L6.71393 22.3813V22.4597C6.71663 22.4933 6.71663 22.527 6.71393 22.5606C6.71714 22.5978 6.71714 22.6354 6.71393 22.6726V25.9224C6.71649 26.0671 6.76898 26.2051 6.8604 26.3075C6.95182 26.4099 7.07507 26.4686 7.20434 26.4715H8.86572C8.99498 26.4686 9.11824 26.4099 9.20966 26.3075C9.30108 26.2051 9.35357 26.0671 9.35613 25.9224V24.1294C9.35622 24.0622 9.35622 23.9949 9.35613 23.9277L9.40617 23.8381L9.46622 23.7484H9.53628L9.62635 23.6924H9.71643H9.8065H14.7206C14.8533 23.6924 14.9806 23.7514 15.0744 23.8565C15.1683 23.9616 15.221 24.1041 15.221 24.2527V25.9896C15.2236 26.1344 15.2761 26.2724 15.3675 26.3747C15.4589 26.4771 15.5822 26.5359 15.7114 26.5387H17.2427C17.372 26.5359 17.4952 26.4771 17.5866 26.3747C17.6781 26.2724 17.7305 26.1344 17.7331 25.9896V24.2079C17.7243 24.1485 17.7243 24.0879 17.7331 24.0286C17.7471 23.9969 17.7638 23.9668 17.7832 23.9389C17.8006 23.8848 17.8285 23.8357 17.8648 23.795C17.9012 23.7544 17.945 23.7232 17.9933 23.7036L24.9992 20.3417V17.092H23.7581C23.6813 17.0933 23.6052 17.0748 23.5358 17.0378C23.4663 17.0009 23.4054 16.9466 23.3578 16.8791C22.5779 15.8205 21.6988 14.8587 20.7356 14.0103L20.6656 13.9206V13.8422C20.6627 13.8087 20.6627 13.7749 20.6656 13.7413C20.6621 13.7041 20.6621 13.6665 20.6656 13.6293V8.84428C19.752 9.64604 18.9523 10.5982 18.2936 11.6682C18.2563 11.7399 18.2049 11.8012 18.1435 11.8475C18.0767 11.8929 18.0012 11.9198 17.9233 11.926H17.6931C15.9516 11.2088 14.6906 10.8053 14.2802 10.7045C13.4352 11.4035 12.4055 11.7656 11.3552 11.7331C10.305 11.7006 9.29469 11.2754 8.4854 10.5252C7.4343 10.8939 6.49402 11.5792 5.76744 12.5062C5.04087 13.4331 4.55599 14.566 4.36587 15.7808C4.17574 16.9956 4.28769 18.2455 4.68947 19.3939C5.09125 20.5422 5.76737 21.5447 6.64387 22.2916Z"/>
</mask>
<path d="M2.4804 14.7163H3.59133C3.89283 13.5797 4.42051 12.5345 5.1347 11.6591C5.8489 10.7838 6.73102 10.1011 7.71476 9.66232C7.06021 8.72111 6.70767 7.5606 6.71393 6.36773C6.71393 4.94412 7.21901 3.57881 8.11806 2.57217C9.01711 1.56553 10.2365 1 11.5079 1C12.7794 1 13.9987 1.56553 14.8978 2.57217C15.7968 3.57881 16.3019 4.94412 16.3019 6.36773C16.2991 7.62457 15.8984 8.83958 15.171 9.7968C15.7515 9.97609 16.6122 10.2787 17.7031 10.7269C18.5717 9.39662 19.5949 8.20197 20.7456 7.17457C20.8199 7.10883 20.9093 7.06804 21.0034 7.05692C21.0976 7.0458 21.1926 7.06481 21.2775 7.11174C21.3624 7.15868 21.4337 7.23161 21.483 7.32208C21.5323 7.41254 21.5578 7.51682 21.5563 7.62281V13.3267C22.4404 14.1234 23.2578 15.0086 23.9983 15.9714H25.4996C25.6323 15.9714 25.7596 16.0304 25.8534 16.1355C25.9473 16.2406 26 16.3831 26 16.5317V20.7115C26.0003 20.8209 25.9721 20.928 25.9187 21.0196C25.8654 21.1112 25.7893 21.1833 25.6997 21.227L18.744 24.5889V25.956C18.7413 26.3979 18.5834 26.8209 18.3043 27.1334C18.0252 27.4459 17.6474 27.6228 17.2527 27.6257H15.7214C15.3267 27.6228 14.949 27.4459 14.6699 27.1334C14.3908 26.8209 14.2328 26.3979 14.2302 25.956V24.757H10.377V25.9336C10.3744 26.3755 10.2164 26.7985 9.93731 27.111C9.65821 27.4235 9.28043 27.6004 8.88574 27.6033H7.35446C6.95977 27.6004 6.58199 27.4235 6.30289 27.111C6.0238 26.7985 5.86584 26.3755 5.86322 25.9336V22.9416C4.92776 22.1045 4.20645 21.0055 3.77234 19.7559C3.33823 18.5063 3.20673 17.1505 3.39116 15.8257H2.50042C2.3677 15.8257 2.24042 15.7667 2.14657 15.6616C2.05272 15.5565 2 15.414 2 15.2654C2 15.1168 2.05272 14.9743 2.14657 14.8692C2.24042 14.7641 2.3677 14.7051 2.50042 14.7051L2.4804 14.7163ZM11.4679 2.12061C10.7177 2.12061 9.9843 2.3697 9.36052 2.83638C8.73674 3.30306 8.25056 3.96637 7.96346 4.74243C7.67637 5.51849 7.60125 6.37244 7.74761 7.1963C7.89397 8.02016 8.25524 8.77692 8.78572 9.37089C9.3162 9.96486 9.99208 10.3694 10.7279 10.5332C11.4637 10.6971 12.2264 10.613 12.9195 10.2915C13.6126 9.9701 14.205 9.42573 14.6218 8.7273C15.0386 8.02886 15.2611 7.20773 15.2611 6.36773C15.2611 5.24132 14.8614 4.16105 14.1501 3.36456C13.4387 2.56807 12.4739 2.12061 11.4679 2.12061ZM6.64387 22.2916L6.71393 22.3813V22.4597C6.71663 22.4933 6.71663 22.527 6.71393 22.5606C6.71714 22.5978 6.71714 22.6354 6.71393 22.6726V25.9224C6.71649 26.0671 6.76898 26.2051 6.8604 26.3075C6.95182 26.4099 7.07507 26.4686 7.20434 26.4715H8.86572C8.99498 26.4686 9.11824 26.4099 9.20966 26.3075C9.30108 26.2051 9.35357 26.0671 9.35613 25.9224V24.1294C9.35622 24.0622 9.35622 23.9949 9.35613 23.9277L9.40617 23.8381L9.46622 23.7484H9.53628L9.62635 23.6924H9.71643H9.8065H14.7206C14.8533 23.6924 14.9806 23.7514 15.0744 23.8565C15.1683 23.9616 15.221 24.1041 15.221 24.2527V25.9896C15.2236 26.1344 15.2761 26.2724 15.3675 26.3747C15.4589 26.4771 15.5822 26.5359 15.7114 26.5387H17.2427C17.372 26.5359 17.4952 26.4771 17.5866 26.3747C17.6781 26.2724 17.7305 26.1344 17.7331 25.9896V24.2079C17.7243 24.1485 17.7243 24.0879 17.7331 24.0286C17.7471 23.9969 17.7638 23.9668 17.7832 23.9389C17.8006 23.8848 17.8285 23.8357 17.8648 23.795C17.9012 23.7544 17.945 23.7232 17.9933 23.7036L24.9992 20.3417V17.092H23.7581C23.6813 17.0933 23.6052 17.0748 23.5358 17.0378C23.4663 17.0009 23.4054 16.9466 23.3578 16.8791C22.5779 15.8205 21.6988 14.8587 20.7356 14.0103L20.6656 13.9206V13.8422C20.6627 13.8087 20.6627 13.7749 20.6656 13.7413C20.6621 13.7041 20.6621 13.6665 20.6656 13.6293V8.84428C19.752 9.64604 18.9523 10.5982 18.2936 11.6682C18.2563 11.7399 18.2049 11.8012 18.1435 11.8475C18.0767 11.8929 18.0012 11.9198 17.9233 11.926H17.6931C15.9516 11.2088 14.6906 10.8053 14.2802 10.7045C13.4352 11.4035 12.4055 11.7656 11.3552 11.7331C10.305 11.7006 9.29469 11.2754 8.4854 10.5252C7.4343 10.8939 6.49402 11.5792 5.76744 12.5062C5.04087 13.4331 4.55599 14.566 4.36587 15.7808C4.17574 16.9956 4.28769 18.2455 4.68947 19.3939C5.09125 20.5422 5.76737 21.5447 6.64387 22.2916Z" fill="#393939"/>
<path d="M2.4804 14.7163H3.59133C3.89283 13.5797 4.42051 12.5345 5.1347 11.6591C5.8489 10.7838 6.73102 10.1011 7.71476 9.66232C7.06021 8.72111 6.70767 7.5606 6.71393 6.36773C6.71393 4.94412 7.21901 3.57881 8.11806 2.57217C9.01711 1.56553 10.2365 1 11.5079 1C12.7794 1 13.9987 1.56553 14.8978 2.57217C15.7968 3.57881 16.3019 4.94412 16.3019 6.36773C16.2991 7.62457 15.8984 8.83958 15.171 9.7968C15.7515 9.97609 16.6122 10.2787 17.7031 10.7269C18.5717 9.39662 19.5949 8.20197 20.7456 7.17457C20.8199 7.10883 20.9093 7.06804 21.0034 7.05692C21.0976 7.0458 21.1926 7.06481 21.2775 7.11174C21.3624 7.15868 21.4337 7.23161 21.483 7.32208C21.5323 7.41254 21.5578 7.51682 21.5563 7.62281V13.3267C22.4404 14.1234 23.2578 15.0086 23.9983 15.9714H25.4996C25.6323 15.9714 25.7596 16.0304 25.8534 16.1355C25.9473 16.2406 26 16.3831 26 16.5317V20.7115C26.0003 20.8209 25.9721 20.928 25.9187 21.0196C25.8654 21.1112 25.7893 21.1833 25.6997 21.227L18.744 24.5889V25.956C18.7413 26.3979 18.5834 26.8209 18.3043 27.1334C18.0252 27.4459 17.6474 27.6228 17.2527 27.6257H15.7214C15.3267 27.6228 14.949 27.4459 14.6699 27.1334C14.3908 26.8209 14.2328 26.3979 14.2302 25.956V24.757H10.377V25.9336C10.3744 26.3755 10.2164 26.7985 9.93731 27.111C9.65821 27.4235 9.28043 27.6004 8.88574 27.6033H7.35446C6.95977 27.6004 6.58199 27.4235 6.30289 27.111C6.0238 26.7985 5.86584 26.3755 5.86322 25.9336V22.9416C4.92776 22.1045 4.20645 21.0055 3.77234 19.7559C3.33823 18.5063 3.20673 17.1505 3.39116 15.8257H2.50042C2.3677 15.8257 2.24042 15.7667 2.14657 15.6616C2.05272 15.5565 2 15.414 2 15.2654C2 15.1168 2.05272 14.9743 2.14657 14.8692C2.24042 14.7641 2.3677 14.7051 2.50042 14.7051L2.4804 14.7163ZM11.4679 2.12061C10.7177 2.12061 9.9843 2.3697 9.36052 2.83638C8.73674 3.30306 8.25056 3.96637 7.96346 4.74243C7.67637 5.51849 7.60125 6.37244 7.74761 7.1963C7.89397 8.02016 8.25524 8.77692 8.78572 9.37089C9.3162 9.96486 9.99208 10.3694 10.7279 10.5332C11.4637 10.6971 12.2264 10.613 12.9195 10.2915C13.6126 9.9701 14.205 9.42573 14.6218 8.7273C15.0386 8.02886 15.2611 7.20773 15.2611 6.36773C15.2611 5.24132 14.8614 4.16105 14.1501 3.36456C13.4387 2.56807 12.4739 2.12061 11.4679 2.12061ZM6.64387 22.2916L6.71393 22.3813V22.4597C6.71663 22.4933 6.71663 22.527 6.71393 22.5606C6.71714 22.5978 6.71714 22.6354 6.71393 22.6726V25.9224C6.71649 26.0671 6.76898 26.2051 6.8604 26.3075C6.95182 26.4099 7.07507 26.4686 7.20434 26.4715H8.86572C8.99498 26.4686 9.11824 26.4099 9.20966 26.3075C9.30108 26.2051 9.35357 26.0671 9.35613 25.9224V24.1294C9.35622 24.0622 9.35622 23.9949 9.35613 23.9277L9.40617 23.8381L9.46622 23.7484H9.53628L9.62635 23.6924H9.71643H9.8065H14.7206C14.8533 23.6924 14.9806 23.7514 15.0744 23.8565C15.1683 23.9616 15.221 24.1041 15.221 24.2527V25.9896C15.2236 26.1344 15.2761 26.2724 15.3675 26.3747C15.4589 26.4771 15.5822 26.5359 15.7114 26.5387H17.2427C17.372 26.5359 17.4952 26.4771 17.5866 26.3747C17.6781 26.2724 17.7305 26.1344 17.7331 25.9896V24.2079C17.7243 24.1485 17.7243 24.0879 17.7331 24.0286C17.7471 23.9969 17.7638 23.9668 17.7832 23.9389C17.8006 23.8848 17.8285 23.8357 17.8648 23.795C17.9012 23.7544 17.945 23.7232 17.9933 23.7036L24.9992 20.3417V17.092H23.7581C23.6813 17.0933 23.6052 17.0748 23.5358 17.0378C23.4663 17.0009 23.4054 16.9466 23.3578 16.8791C22.5779 15.8205 21.6988 14.8587 20.7356 14.0103L20.6656 13.9206V13.8422C20.6627 13.8087 20.6627 13.7749 20.6656 13.7413C20.6621 13.7041 20.6621 13.6665 20.6656 13.6293V8.84428C19.752 9.64604 18.9523 10.5982 18.2936 11.6682C18.2563 11.7399 18.2049 11.8012 18.1435 11.8475C18.0767 11.8929 18.0012 11.9198 17.9233 11.926H17.6931C15.9516 11.2088 14.6906 10.8053 14.2802 10.7045C13.4352 11.4035 12.4055 11.7656 11.3552 11.7331C10.305 11.7006 9.29469 11.2754 8.4854 10.5252C7.4343 10.8939 6.49402 11.5792 5.76744 12.5062C5.04087 13.4331 4.55599 14.566 4.36587 15.7808C4.17574 16.9956 4.28769 18.2455 4.68947 19.3939C5.09125 20.5422 5.76737 21.5447 6.64387 22.2916Z" stroke="#393939" mask="url(#path-1-outside-1_154_2718)"/>
<path d="M20.6168 17.7867C20.0862 17.7867 19.656 17.3051 19.656 16.7109C19.656 16.1168 20.0862 15.6351 20.6168 15.6351C21.1475 15.6351 21.5776 16.1168 21.5776 16.7109C21.5776 17.3051 21.1475 17.7867 20.6168 17.7867Z" fill="#393939"/>
<path d="M8.10626 12.3293H14.8419C14.9746 12.3293 15.1019 12.3883 15.1957 12.4934C15.2896 12.5985 15.3423 12.741 15.3423 12.8896C15.3423 13.0382 15.2896 13.1807 15.1957 13.2858C15.1019 13.3909 14.9746 13.4499 14.8419 13.4499H8.10626C7.97354 13.4499 7.84625 13.3909 7.75241 13.2858C7.65856 13.1807 7.60584 13.0382 7.60584 12.8896C7.60584 12.741 7.65856 12.5985 7.75241 12.4934C7.84625 12.3883 7.97354 12.3293 8.10626 12.3293Z" fill="#393939"/>
</svg>
