<svg width="24" height="27" viewBox="0 0 24 27" fill="none" xmlns="http://www.w3.org/2000/svg">
<path d="M12 16.641C13.6569 16.641 15 15.151 15 13.3128C15 11.4747 13.6569 9.98462 12 9.98462C10.3431 9.98462 9 11.4747 9 13.3128C9 15.151 10.3431 16.641 12 16.641Z" stroke="#393939" stroke-width="1.5" stroke-miterlimit="10" stroke-linecap="round" stroke-linejoin="round"/>
<path d="M2 14.2891V12.3366C2 11.1828 2.85 10.2287 3.9 10.2287C5.71 10.2287 6.45 8.80869 5.54 7.06692C5.02 6.06846 5.33 4.77045 6.24 4.19356L7.97 3.09525C8.76 2.57383 9.78 2.88447 10.25 3.7609L10.36 3.97168C11.26 5.71345 12.74 5.71345 13.65 3.97168L13.76 3.7609C14.23 2.88447 15.25 2.57383 16.04 3.09525L17.77 4.19356C18.68 4.77045 18.99 6.06846 18.47 7.06692C17.56 8.80869 18.3 10.2287 20.11 10.2287C21.15 10.2287 22.01 11.1717 22.01 12.3366V14.2891C22.01 15.4429 21.16 16.397 20.11 16.397C18.3 16.397 17.56 17.8171 18.47 19.5588C18.99 20.5684 18.68 21.8553 17.77 22.4322L16.04 23.5305C15.25 24.0519 14.23 23.7413 13.76 22.8648L13.65 22.6541C12.75 20.9123 11.27 20.9123 10.36 22.6541L10.25 22.8648C9.78 23.7413 8.76 24.0519 7.97 23.5305L6.24 22.4322C5.33 21.8553 5.02 20.5573 5.54 19.5588C6.45 17.8171 5.71 16.397 3.9 16.397C2.85 16.397 2 15.4429 2 14.2891Z" stroke="#393939" stroke-width="1.5" stroke-miterlimit="10" stroke-linecap="round" stroke-linejoin="round"/>
</svg>
