<svg width="40" height="40" viewBox="0 0 40 40" fill="none" xmlns="http://www.w3.org/2000/svg">
<path fill-rule="evenodd" clip-rule="evenodd" d="M2.14773 4.60505C2.36605 3.95012 3.07395 3.59617 3.72887 3.81449L4.1704 3.96166C4.1924 3.96899 4.21432 3.9763 4.23618 3.98359C5.28013 4.33152 6.16235 4.62557 6.85607 4.94829C7.59347 5.29134 8.23328 5.71649 8.71845 6.3896C9.2036 7.06274 9.40462 7.80417 9.49687 8.6122C9.58367 9.37237 9.58363 10.3023 9.58358 11.4027V15.8337C9.58358 18.2261 9.58625 19.8946 9.7555 21.1534C9.91992 22.3764 10.2207 23.0241 10.6819 23.4854C11.1432 23.9466 11.7908 24.2474 13.0138 24.4117C14.2727 24.5811 15.9412 24.5837 18.3336 24.5837H30.0002C30.6906 24.5837 31.2502 25.1432 31.2502 25.8337C31.2502 26.5241 30.6906 27.0837 30.0002 27.0837H18.2421C15.9628 27.0837 14.1256 27.0837 12.6807 26.8894C11.1805 26.6877 9.91737 26.2562 8.91417 25.2531C7.91098 24.2499 7.47948 22.9867 7.2778 21.4866C7.08353 20.0416 7.08355 18.2044 7.08358 15.9251V11.4721C7.08358 10.2837 7.0817 9.49745 7.013 8.89577C6.94797 8.32604 6.83438 8.05122 6.69035 7.85139C6.54632 7.65155 6.32152 7.45689 5.80158 7.21502C5.2525 6.95959 4.50717 6.70914 3.37982 6.33337L2.9383 6.18619C2.28338 5.96789 1.92943 5.25999 2.14773 4.60505Z" fill="#393939"/>
<path d="M9.5752 10C9.58346 10.4319 9.58346 10.8993 9.58345 11.4023L9.58343 15.8333C9.58343 18.2257 9.5861 19.8942 9.75535 21.1532C9.78005 21.3368 9.80783 21.5077 9.83876 21.6667H26.7035C28.3025 21.6667 29.102 21.6667 29.7282 21.2538C30.3543 20.8408 30.6693 20.106 31.2992 18.6363L32.0135 16.9697C33.3627 13.8216 34.0372 12.2476 33.2962 11.1238C32.5552 10 30.8427 10 27.4178 10H9.5752Z" fill="#D2E4CC"/>
<path d="M12.5 30C13.8807 30 15 31.1193 15 32.5C15 33.8807 13.8807 35 12.5 35C11.1193 35 10 33.8807 10 32.5C10 31.1193 11.1193 30 12.5 30Z" fill="#393939"/>
<path d="M30 32.5C30 31.1192 28.8807 30 27.5 30C26.1193 30 25 31.1192 25 32.5C25 33.8807 26.1193 35 27.5 35C28.8807 35 30 33.8807 30 32.5Z" fill="#393939"/>
</svg>
