<svg width="40" height="40" viewBox="0 0 40 40" fill="none" xmlns="http://www.w3.org/2000/svg">
<g clip-path="url(#clip0_203_3578)">
<path d="M30.6457 0C30.3215 0 30.0586 0.262857 30.0586 0.587084V9.98043C30.0586 10.3473 29.7601 10.6458 29.3933 10.6458C29.0264 10.6458 28.7279 10.3473 28.7279 9.98043V0.587084C28.7279 0.262857 28.465 0 28.1408 0C27.8166 0 27.5537 0.262857 27.5537 0.587084V9.98043C27.5537 10.3473 27.2553 10.6458 26.8884 10.6458C26.5215 10.6458 26.223 10.3473 26.223 9.98043V0.587084C26.223 0.262857 25.9601 0 25.6359 0C25.3117 0 25.0488 0.262857 25.0488 0.587084V9.98043C25.0488 10.3473 24.7504 10.6458 24.3835 10.6458C24.0166 10.6458 23.7181 10.3473 23.7181 9.98043V0.587084C23.7181 0.262857 23.4553 0 23.131 0C22.8068 0 22.5439 0.262857 22.5439 0.587084V13.1115C22.5439 14.1259 23.3692 14.9511 24.3835 14.9511C24.7504 14.9511 25.0488 15.2495 25.0488 15.6164V21.3627C23.9718 21.6268 23.1702 22.6 23.1702 23.7573V36.2818C23.1702 38.332 24.8382 40 26.8884 40C28.9385 40 30.6066 38.332 30.6066 36.2818V23.7573C30.6066 22.6 29.8049 21.6269 28.7279 21.3627V15.6164C28.7279 15.2495 29.0264 14.9511 29.3933 14.9511C30.4076 14.9511 31.2328 14.1259 31.2328 13.1115V0.587084C31.2328 0.262857 30.9699 0 30.6457 0ZM29.4324 23.7573V36.2818C29.4324 37.6845 28.2911 38.8258 26.8884 38.8258C25.4856 38.8258 24.3443 37.6845 24.3443 36.2818V23.7573C24.3443 23.0452 24.9237 22.4658 25.6359 22.4658H28.1408C28.853 22.4658 29.4324 23.0452 29.4324 23.7573ZM29.3933 13.7769C28.3789 13.7769 27.5537 14.6021 27.5537 15.6164V21.2916H26.223V15.6164C26.223 14.6021 25.3978 13.7769 24.3835 13.7769C24.0166 13.7769 23.7181 13.4784 23.7181 13.1115V11.695C23.9246 11.7753 24.1489 11.82 24.3835 11.82C24.867 11.82 25.3072 11.6322 25.6359 11.326C25.9646 11.6322 26.4048 11.82 26.8884 11.82C27.3719 11.82 27.8121 11.6322 28.1408 11.326C28.4695 11.6322 28.9097 11.82 29.3933 11.82C29.6279 11.82 29.8521 11.7753 30.0586 11.695V13.1115C30.0586 13.4784 29.7601 13.7769 29.3933 13.7769Z" fill="#393939"/>
<path d="M29.4324 23.7573V36.2818C29.4324 37.6845 28.2911 38.8258 26.8884 38.8258C25.4856 38.8258 24.3443 37.6845 24.3443 36.2818V23.7573C24.3443 23.0452 24.9237 22.4658 25.6359 22.4658H28.1408C28.853 22.4658 29.4324 23.0452 29.4324 23.7573Z" fill="#D2E4CC"/>
<path d="M14.364 0C12.7609 0 11.3247 0.909824 10.3199 2.56188C9.30408 4.23202 8.76709 6.58082 8.76709 9.35421C8.76709 11.3622 9.85468 13.2261 11.6054 14.2187C12.1723 14.54 12.5244 15.1663 12.5244 15.8532V21.3627C11.4474 21.6268 10.6458 22.6 10.6458 23.7573V36.2818C10.6458 38.332 12.3138 40 14.364 40C16.4141 40 18.0822 38.332 18.0822 36.2818V23.7573C18.0822 22.6 17.2805 21.6269 16.2035 21.3627V15.8532C16.2035 15.1663 16.5557 14.54 17.1225 14.2187C18.8732 13.2261 19.9608 11.3622 19.9608 9.35421C19.9608 6.58082 19.4238 4.23202 18.408 2.56188C17.4032 0.909824 15.967 0 14.364 0ZM16.908 23.7573V36.2818C16.908 37.6845 15.7667 38.8258 14.364 38.8258C12.9612 38.8258 11.8199 37.6845 11.8199 36.2818V23.7573C11.8199 23.0452 12.3993 22.4658 13.1115 22.4658H15.6164C16.3286 22.4658 16.908 23.0452 16.908 23.7573ZM16.5434 13.1973C15.6095 13.7267 15.0293 14.7444 15.0293 15.8532V21.2916H13.6986V15.8532C13.6986 14.7444 13.1184 13.7267 12.1845 13.1973C10.8008 12.4128 9.94126 10.9403 9.94126 9.35421C9.94126 6.79609 10.4191 4.65832 11.3231 3.17198C12.1181 1.86505 13.1696 1.17417 14.364 1.17417C15.5583 1.17417 16.6098 1.86505 17.4048 3.17198C18.3089 4.65832 18.7867 6.79609 18.7867 9.35421C18.7867 10.9403 17.9271 12.4128 16.5434 13.1973Z" fill="#393939"/>
<path d="M16.908 23.7573V36.2818C16.908 37.6845 15.7667 38.8258 14.364 38.8258C12.9612 38.8258 11.8199 37.6845 11.8199 36.2818V23.7573C11.8199 23.0452 12.3993 22.4658 13.1115 22.4658H15.6164C16.3286 22.4658 16.908 23.0452 16.908 23.7573Z" fill="#FEBE98"/>
<path d="M14.9902 23.7969C14.6659 23.7969 14.4031 24.0597 14.4031 24.384V25.6364C14.4031 25.9606 14.6659 26.2235 14.9902 26.2235C15.3144 26.2235 15.5772 25.9606 15.5772 25.6364V24.384C15.5772 24.0597 15.3144 23.7969 14.9902 23.7969Z" fill="#393939"/>
<path d="M14.9902 27.5537C14.6659 27.5537 14.4031 27.8166 14.4031 28.1408V33.7768C14.4031 34.101 14.6659 34.3639 14.9902 34.3639C15.3144 34.3639 15.5772 34.101 15.5772 33.7768V28.1408C15.5772 27.8166 15.3144 27.5537 14.9902 27.5537Z" fill="#393939"/>
<path d="M27.5146 23.7969C27.1903 23.7969 26.9275 24.0597 26.9275 24.384V25.6364C26.9275 25.9606 27.1903 26.2235 27.5146 26.2235C27.8388 26.2235 28.1017 25.9606 28.1017 25.6364V24.384C28.1017 24.0597 27.8388 23.7969 27.5146 23.7969Z" fill="#393939"/>
<path d="M27.5146 27.5537C27.1903 27.5537 26.9275 27.8166 26.9275 28.1408V33.7768C26.9275 34.101 27.1903 34.3639 27.5146 34.3639C27.8388 34.3639 28.1017 34.101 28.1017 33.7768V28.1408C28.1017 27.8166 27.8388 27.5537 27.5146 27.5537Z" fill="#393939"/>
</g>
<defs>
<clipPath id="clip0_203_3578">
<rect width="40" height="40" fill="white"/>
</clipPath>
</defs>
</svg>
