<svg width="40" height="40" viewBox="0 0 40 40" fill="none" xmlns="http://www.w3.org/2000/svg">
<g clip-path="url(#clip0_204_3810)">
<path d="M24.1108 36.126C24.1108 35.8403 24.2243 35.5663 24.4263 35.3643C24.6284 35.1623 24.9023 35.0488 25.188 35.0488C25.4737 35.0488 25.7477 35.1623 25.9497 35.3643C26.1518 35.5663 26.2652 35.8403 26.2652 36.126V38.9227C26.2652 39.2084 26.1518 39.4824 25.9497 39.6844C25.7477 39.8865 25.4737 39.9999 25.188 39.9999C24.9023 39.9999 24.6284 39.8865 24.4263 39.6844C24.2243 39.4824 24.1108 39.2084 24.1108 38.9227V36.126Z" fill="#393939"/>
<path d="M13.6653 36.126C13.6653 35.8403 13.7788 35.5663 13.9808 35.3643C14.1828 35.1623 14.4568 35.0488 14.7425 35.0488C15.0282 35.0488 15.3022 35.1623 15.5042 35.3643C15.7062 35.5663 15.8197 35.8403 15.8197 36.126V38.9227C15.8197 39.2084 15.7062 39.4824 15.5042 39.6844C15.3022 39.8865 15.0282 39.9999 14.7425 39.9999C14.4568 39.9999 14.1828 39.8865 13.9808 39.6844C13.7788 39.4824 13.6653 39.2084 13.6653 38.9227V36.126Z" fill="#393939"/>
<path d="M23.861 1.95605H22.4805V10.1626H23.861V1.95605Z" fill="#C4C4C4"/>
<path d="M17.4288 2.01953H16.0483V10.226H17.4288V2.01953Z" fill="#C4C4C4"/>
<path d="M15.2322 1.00977C15.2322 0.877162 15.2583 0.745855 15.309 0.623344C15.3598 0.500833 15.4342 0.389517 15.5279 0.295751C15.6217 0.201985 15.733 0.127607 15.8555 0.0768615C15.978 0.0261164 16.1093 -1.13451e-06 16.242 0L23.6234 0C23.8909 0.000553161 24.1472 0.107183 24.3361 0.296492C24.525 0.4858 24.6311 0.742323 24.6311 1.00977C24.6311 1.27722 24.525 1.53374 24.3361 1.72305C24.1472 1.91236 23.8909 2.01899 23.6234 2.01954H16.242C16.1093 2.01954 15.978 1.99342 15.8555 1.94268C15.733 1.89193 15.6217 1.81755 15.5279 1.72379C15.4342 1.63002 15.3598 1.5187 15.309 1.39619C15.2583 1.27368 15.2322 1.14237 15.2322 1.00977Z" fill="#FF7878"/>
<path d="M9.35645 13.5543C9.35644 13.109 9.44416 12.668 9.61459 12.2565C9.78501 11.8451 10.0348 11.4712 10.3497 11.1563C10.6646 10.8414 11.0385 10.5916 11.4499 10.4212C11.8613 10.2508 12.3023 10.1631 12.7477 10.1631H27.2481C28.1475 10.1631 29.0101 10.5204 29.6461 11.1563C30.2821 11.7923 30.6394 12.6549 30.6394 13.5543V34.1333C30.6394 35.0327 30.2821 35.8953 29.6461 36.5313C29.0101 37.1672 28.1475 37.5245 27.2481 37.5245H12.7477C11.8483 37.5245 10.9857 37.1672 10.3497 36.5313C9.71373 35.8953 9.35644 35.0327 9.35645 34.1333V13.5543Z" fill="#FF7878"/>
<path d="M10.4009 13.1606C10.4009 13.0236 10.4279 12.8879 10.4803 12.7613C10.5327 12.6347 10.6096 12.5197 10.7065 12.4228C10.8034 12.3259 10.9184 12.2491 11.045 12.1966C11.1716 12.1442 11.3073 12.1172 11.4443 12.1172H12.687C12.824 12.1172 12.9597 12.1442 13.0863 12.1966C13.2129 12.2491 13.3279 12.3259 13.4248 12.4228C13.5217 12.5197 13.5986 12.6347 13.651 12.7613C13.7034 12.8879 13.7304 13.0236 13.7304 13.1606V34.4612C13.7304 34.5983 13.7034 34.7339 13.651 34.8605C13.5986 34.9871 13.5217 35.1022 13.4248 35.1991C13.3279 35.296 13.2129 35.3728 13.0863 35.4253C12.9597 35.4777 12.824 35.5047 12.687 35.5047H11.4443C11.3073 35.5047 11.1716 35.4777 11.045 35.4253C10.9184 35.3728 10.8034 35.296 10.7065 35.1991C10.6096 35.1022 10.5327 34.9871 10.4803 34.8605C10.4279 34.7339 10.4009 34.5983 10.4009 34.4612V13.1606Z" fill="#E36666"/>
<path d="M14.3833 13.1606C14.3833 13.0236 14.4103 12.8879 14.4627 12.7613C14.5152 12.6347 14.592 12.5197 14.6889 12.4228C14.7858 12.3259 14.9008 12.2491 15.0274 12.1966C15.154 12.1442 15.2897 12.1172 15.4268 12.1172H16.6694C16.8064 12.1172 16.9421 12.1442 17.0687 12.1966C17.1953 12.2491 17.3103 12.3259 17.4072 12.4228C17.5041 12.5197 17.581 12.6347 17.6334 12.7613C17.6858 12.8879 17.7128 13.0236 17.7128 13.1606V34.4612C17.7128 34.5983 17.6859 34.7339 17.6334 34.8605C17.581 34.9871 17.5041 35.1022 17.4072 35.1991C17.3103 35.296 17.1953 35.3728 17.0687 35.4253C16.9421 35.4777 16.8064 35.5047 16.6694 35.5047H15.4268C15.2897 35.5047 15.154 35.4777 15.0274 35.4253C14.9008 35.3728 14.7858 35.296 14.6889 35.1991C14.592 35.1022 14.5152 34.9871 14.4627 34.8605C14.4103 34.7339 14.3833 34.5983 14.3833 34.4612V13.1606Z" fill="#E36666"/>
<path d="M18.3657 13.1606C18.3657 13.0236 18.3927 12.8879 18.4452 12.7613C18.4976 12.6347 18.5745 12.5197 18.6713 12.4228C18.7682 12.3259 18.8833 12.249 19.0099 12.1966C19.1365 12.1442 19.2722 12.1172 19.4092 12.1172H20.6518C20.7888 12.1172 20.9245 12.1442 21.0511 12.1966C21.1777 12.2491 21.2928 12.3259 21.3896 12.4228C21.4865 12.5197 21.5634 12.6347 21.6158 12.7613C21.6683 12.8879 21.6953 13.0236 21.6953 13.1606V34.4612C21.6953 34.5983 21.6683 34.7339 21.6158 34.8605C21.5634 34.9871 21.4865 35.1022 21.3896 35.1991C21.2928 35.296 21.1777 35.3728 21.0511 35.4253C20.9245 35.4777 20.7888 35.5047 20.6518 35.5047H19.4092C19.2722 35.5047 19.1365 35.4777 19.0099 35.4253C18.8833 35.3728 18.7682 35.296 18.6713 35.1991C18.5745 35.1022 18.4976 34.9871 18.4452 34.8605C18.3927 34.7339 18.3657 34.5983 18.3657 34.4612L18.3657 13.1606Z" fill="#E36666"/>
<path d="M22.3481 13.1606C22.3481 12.8839 22.4581 12.6185 22.6538 12.4228C22.8494 12.2271 23.1149 12.1172 23.3916 12.1172H24.6342C24.7713 12.1172 24.9069 12.1442 25.0335 12.1966C25.1601 12.2491 25.2752 12.3259 25.3721 12.4228C25.469 12.5197 25.5458 12.6347 25.5983 12.7613C25.6507 12.8879 25.6777 13.0236 25.6777 13.1606V34.4612C25.6777 34.5983 25.6507 34.7339 25.5983 34.8605C25.5458 34.9871 25.469 35.1022 25.3721 35.1991C25.2752 35.296 25.1601 35.3728 25.0335 35.4253C24.9069 35.4777 24.7713 35.5047 24.6342 35.5047H23.3916C23.2546 35.5047 23.1189 35.4777 22.9923 35.4253C22.8657 35.3728 22.7507 35.296 22.6538 35.1991C22.5569 35.1022 22.48 34.9871 22.4276 34.8605C22.3751 34.7339 22.3481 34.5983 22.3481 34.4612V13.1606Z" fill="#E36666"/>
<path d="M26.3306 13.1606C26.3306 13.0236 26.3576 12.8879 26.41 12.7613C26.4624 12.6347 26.5393 12.5197 26.6362 12.4228C26.7331 12.3259 26.8481 12.2491 26.9747 12.1966C27.1013 12.1442 27.237 12.1172 27.374 12.1172H28.6167C28.8934 12.1172 29.1588 12.2271 29.3545 12.4228C29.5502 12.6185 29.6601 12.8839 29.6601 13.1606V34.4612C29.6601 34.5983 29.6331 34.7339 29.5807 34.8605C29.5282 34.9871 29.4514 35.1022 29.3545 35.1991C29.2576 35.296 29.1426 35.3728 29.016 35.4253C28.8894 35.4777 28.7537 35.5047 28.6167 35.5047H27.374C27.237 35.5047 27.1013 35.4777 26.9747 35.4253C26.8481 35.3728 26.7331 35.296 26.6362 35.1991C26.5393 35.1022 26.4624 34.9871 26.41 34.8605C26.3576 34.7339 26.3306 34.5983 26.3306 34.4612V13.1606Z" fill="#E36666"/>
<path d="M11.6514 19.332C11.6243 19.1977 11.624 19.0593 11.6505 18.9249C11.6769 18.7905 11.7296 18.6626 11.8056 18.5486C11.8815 18.4346 11.9791 18.3366 12.0929 18.2603C12.2067 18.1841 12.3344 18.131 12.4688 18.1041L13.6869 17.8601C13.9584 17.8058 14.2402 17.8615 14.4707 18.0149C14.7011 18.1683 14.8612 18.4069 14.9158 18.6782L15.1723 19.9537C15.1993 20.088 15.1996 20.2263 15.1732 20.3607C15.1467 20.4951 15.094 20.623 15.0181 20.737C14.9422 20.8511 14.8446 20.949 14.7308 21.0253C14.617 21.1016 14.4892 21.1546 14.3549 21.1815L13.1368 21.4255C12.8653 21.4798 12.5835 21.4241 12.353 21.2707C12.1226 21.1173 11.9625 20.8788 11.9079 20.6074L11.6514 19.332Z" fill="#D9D9D9"/>
<path d="M15.0117 22.486C15.1013 22.224 15.2912 22.0084 15.5397 21.8863C15.7882 21.7643 16.075 21.7458 16.3371 21.835L18.5326 22.5826C18.6623 22.6267 18.782 22.696 18.8849 22.7864C18.9877 22.8768 19.0718 22.9867 19.1322 23.1096C19.1925 23.2326 19.2281 23.3662 19.2368 23.5029C19.2454 23.6396 19.2271 23.7767 19.1827 23.9063L18.7616 25.1377C18.672 25.3996 18.482 25.6153 18.2336 25.7373C17.9851 25.8594 17.6983 25.8779 17.4362 25.7887L15.2407 25.0411C15.111 24.997 14.9913 24.9277 14.8884 24.8373C14.7855 24.7468 14.7015 24.637 14.6411 24.5141C14.5807 24.3911 14.5452 24.2575 14.5365 24.1208C14.5278 23.9841 14.5462 23.847 14.5906 23.7174L15.0117 22.486Z" fill="#FEBE98"/>
<path d="M11.3854 27.796C11.3504 27.6636 11.3419 27.5255 11.3603 27.3898C11.3787 27.2541 11.4237 27.1233 11.4928 27.005C11.5618 26.8866 11.6534 26.7831 11.7625 26.7002C11.8716 26.6173 11.9959 26.5568 12.1284 26.522L14.372 25.9327C14.6398 25.8624 14.9245 25.9013 15.1636 26.0407C15.4027 26.1802 15.5767 26.4089 15.6474 26.6765L15.9793 27.9346C16.0143 28.0671 16.0228 28.2051 16.0043 28.3409C15.9859 28.4766 15.9409 28.6074 15.8719 28.7257C15.8029 28.844 15.7112 28.9476 15.6021 29.0305C15.4931 29.1134 15.3687 29.1739 15.2362 29.2087L12.9926 29.798C12.7249 29.8683 12.4402 29.8294 12.2011 29.6899C11.9619 29.5505 11.7879 29.3218 11.7173 29.0542L11.3854 27.796Z" fill="#D2E4CC"/>
<path d="M27.3581 18.8415C27.1195 19.3857 26.7248 19.8467 26.2239 20.1664C25.7231 20.4861 25.1387 20.6499 24.5447 20.6372C23.9507 20.6246 23.3738 20.4359 22.8871 20.0952C22.4004 19.7545 22.0257 19.277 21.8105 18.7232C21.5953 18.1694 21.5493 17.5642 21.6783 16.9842C21.8072 16.4042 22.1054 15.8756 22.535 15.4652C22.9646 15.0547 23.5063 14.781 24.0916 14.6787C24.6768 14.5763 25.2793 14.6499 25.8227 14.8902C26.5488 15.2122 27.1179 15.8087 27.4056 16.5491C27.6933 17.2895 27.6762 18.1137 27.3581 18.8415Z" fill="#FCF8F5"/>
<path d="M26.2429 16.209C26.231 16.1584 26.2059 16.1119 26.1701 16.0742C26.1344 16.0365 26.0893 16.0089 26.0394 15.9943C25.9895 15.9797 25.9367 15.9785 25.8862 15.991C25.8358 16.0034 25.7895 16.0289 25.7521 16.0651L24.9405 16.8493L23.4097 16.4388C23.3588 16.4252 23.3048 16.4301 23.2572 16.4526C23.2097 16.4752 23.1717 16.5139 23.15 16.5619L23.1462 16.5703C23.1233 16.6212 23.1203 16.6788 23.1379 16.7318C23.1555 16.7847 23.1924 16.8291 23.2413 16.8561L24.318 17.4507L23.6329 18.1127C23.6258 18.1219 23.6193 18.1315 23.6132 18.1414L23.2052 18.0341C23.1609 18.0223 23.1138 18.0272 23.0728 18.048C23.0319 18.0687 23.0001 18.1037 22.9833 18.1464C22.9666 18.1891 22.9662 18.2365 22.9821 18.2795C22.998 18.3225 23.0292 18.3581 23.0698 18.3796L23.6178 18.666L23.8869 19.1816C23.9093 19.2246 23.9477 19.2571 23.9938 19.2721C24.0399 19.2872 24.0901 19.2836 24.1335 19.2621C24.1723 19.2429 24.2033 19.211 24.2213 19.1716C24.2393 19.1323 24.2431 19.088 24.2321 19.0461L24.1179 18.6112C24.1204 18.6087 24.1238 18.608 24.1262 18.6054L24.789 17.9161L25.3905 19.0069C25.4175 19.0558 25.4618 19.0927 25.5147 19.1103C25.5677 19.1279 25.6253 19.125 25.6761 19.102L25.6846 19.0982C25.7325 19.0765 25.7712 19.0385 25.7938 18.9909C25.8163 18.9433 25.8212 18.8892 25.8076 18.8384L25.3925 17.2883L26.1686 16.4811C26.2028 16.4456 26.2275 16.4021 26.2405 16.3545C26.2534 16.307 26.2543 16.257 26.2429 16.209Z" fill="#FF7878"/>
</g>
<defs>
<clipPath id="clip0_204_3810">
<rect width="40" height="40" fill="white"/>
</clipPath>
</defs>
</svg>
