<svg width="85" height="40" viewBox="0 0 85 40" fill="none" xmlns="http://www.w3.org/2000/svg">
<path d="M22.7695 20.1413L14.3121 13.0935C13.7911 12.6592 13 13.0298 13 13.708V26.9586C13 27.6369 13.7911 28.0074 14.3121 27.5732L22.7695 20.5254C22.8895 20.4254 22.8895 20.2412 22.7695 20.1413Z" fill="#FEBE98"/>
<path d="M47.7695 20.1413L39.3121 13.0935C38.7911 12.6592 38 13.0298 38 13.708V26.9586C38 27.6369 38.7911 28.0074 39.3121 27.5732L47.7695 20.5254C47.8895 20.4254 47.8895 20.2412 47.7695 20.1413Z" fill="#FEBE98"/>
<path d="M72.7695 20.1413L64.3121 13.0935C63.7911 12.6592 63 13.0298 63 13.708V26.9586C63 27.6369 63.7911 28.0074 64.3121 27.5732L72.7695 20.5254C72.8895 20.4254 72.8895 20.2412 72.7695 20.1413Z" fill="#FEBE98"/>
</svg>
