<svg width="48" height="48" viewBox="0 0 48 48" fill="none" xmlns="http://www.w3.org/2000/svg">
<path d="M14.1783 34.9824C6.44343 34.9824 2 30.3744 2 23.4624C2 16.5504 6.44343 12 14.1783 12H32.4457C40.1806 12 44.5691 16.5504 44.5691 23.4624C44.5691 30.3744 40.1806 34.9824 32.4457 34.9824H14.1783ZM8.69257 21.1008C8.69257 22.8864 9.95429 24.2112 13.0263 26.5728L14.0137 27.3792C16.8663 25.248 19.0606 23.2896 19.0606 21.6768C19.1154 19.8336 17.9086 18.6816 16.4274 18.8544C15.1657 18.912 14.0686 20.0064 13.7943 21.1008C13.1909 19.6608 12.6423 18.7968 11.0514 18.7392C9.57029 18.6816 8.74743 19.6608 8.69257 21.1008ZM18.4571 28.7616C18.4023 30.144 20.8709 31.4688 23.504 31.4112C26.1371 31.4688 28.6057 30.144 28.5509 28.7616C28.5509 28.0704 28.0571 27.552 27.4537 27.552C26.96 27.552 26.4114 27.7248 25.808 28.128C25.0949 28.416 24.1074 28.8192 23.504 28.8192C23.0103 28.8192 22.2423 28.5888 21.2 28.128C20.5966 27.7248 19.9931 27.552 19.4994 27.552C18.896 27.552 18.4571 28.0704 18.4571 28.7616ZM27.1794 21.1008C27.1794 22.8864 28.4411 24.2112 31.5131 26.5728L32.5006 27.3792C35.3531 25.248 37.5474 23.2896 37.5474 21.6768C37.6023 19.8336 36.3954 18.6816 34.9143 18.8544C33.6526 18.912 32.5554 20.0064 32.2811 21.1008C31.6777 19.6608 31.1291 18.7968 29.5383 18.7392C28.0571 18.6816 27.2343 19.6608 27.1794 21.1008Z" fill="#393939"/>
</svg>
