<svg width="24" height="24" viewBox="0 0 24 24" fill="none" xmlns="http://www.w3.org/2000/svg">
<path d="M7.08914 17.4912C3.22171 17.4912 1 15.1872 1 11.7312C1 8.2752 3.22171 6 7.08914 6H16.2229C20.0903 6 22.2846 8.2752 22.2846 11.7312C22.2846 15.1872 20.0903 17.4912 16.2229 17.4912H7.08914ZM4.34629 10.5504C4.34629 11.4432 4.97714 12.1056 6.51314 13.2864L7.00686 13.6896C8.43314 12.624 9.53029 11.6448 9.53029 10.8384C9.55772 9.9168 8.95429 9.3408 8.21372 9.4272C7.58286 9.456 7.03429 10.0032 6.89714 10.5504C6.59543 9.8304 6.32114 9.3984 5.52571 9.3696C4.78514 9.3408 4.37371 9.8304 4.34629 10.5504ZM9.22857 14.3808C9.20114 15.072 10.4354 15.7344 11.752 15.7056C13.0686 15.7344 14.3029 15.072 14.2754 14.3808C14.2754 14.0352 14.0286 13.776 13.7269 13.776C13.48 13.776 13.2057 13.8624 12.904 14.064C12.5474 14.208 12.0537 14.4096 11.752 14.4096C11.5051 14.4096 11.1211 14.2944 10.6 14.064C10.2983 13.8624 9.99657 13.776 9.74972 13.776C9.448 13.776 9.22857 14.0352 9.22857 14.3808ZM13.5897 10.5504C13.5897 11.4432 14.2206 12.1056 15.7566 13.2864L16.2503 13.6896C17.6766 12.624 18.7737 11.6448 18.7737 10.8384C18.8011 9.9168 18.1977 9.3408 17.4571 9.4272C16.8263 9.456 16.2777 10.0032 16.1406 10.5504C15.8389 9.8304 15.5646 9.3984 14.7691 9.3696C14.0286 9.3408 13.6171 9.8304 13.5897 10.5504Z" fill="#393939"/>
</svg>
